<?xml version="1.0" encoding="UTF-8"?>
<svg version="1.1" xmlns="http://www.w3.org/2000/svg" width="1254" height="1254">
<path d="M0 0 C413.82 0 827.64 0 1254 0 C1254 413.82 1254 827.64 1254 1254 C840.18 1254 426.36 1254 0 1254 C0 840.18 0 426.36 0 0 Z " fill="#011744" transform="translate(0,0)"/>
<path d="M0 0 C413.82 0 827.64 0 1254 0 C1254 413.82 1254 827.64 1254 1254 C840.18 1254 426.36 1254 0 1254 C0 840.18 0 426.36 0 0 Z M570.01171875 23.40625 C566.30871408 23.85136244 562.60317302 24.26084545 558.89453125 24.65625 C539.10051468 26.7951802 519.7114326 29.77676522 500.4453125 34.8515625 C496.77149174 35.81783097 493.082455 36.66213405 489.37158203 37.47265625 C476.28756702 40.38201104 463.32068522 43.78196456 450.5 47.6875 C449.09596924 48.11518677 449.09596924 48.11518677 447.66357422 48.55151367 C443.11371071 49.96164984 438.62738557 51.46281763 434.18115234 53.17114258 C431.52953113 54.17878238 428.86120649 55.13532195 426.19140625 56.09375 C355.70784157 81.57996623 289.9695816 120.15521104 234.51171875 170.734375 C233.1116857 171.99723529 231.7055748 173.25372913 230.27731323 174.48457336 C225.40630873 178.68360081 220.78552169 183.06771339 216.24609375 187.62109375 C215.54154556 188.32468521 214.83699738 189.02827667 214.11109924 189.75318909 C212.63346633 191.23014648 211.15707543 192.70834742 209.68188477 194.18774414 C207.44333519 196.43165085 205.19949527 198.67016704 202.95507812 200.90820312 C201.51009596 202.35384618 200.06542408 203.79979945 198.62109375 205.24609375 C197.63017982 206.23397133 197.63017982 206.23397133 196.61924744 207.24180603 C192.21538012 211.66755722 188.06522854 216.26266073 184 221 C183.02674582 222.11780099 182.05290627 223.23509297 181.078125 224.3515625 C174.6977991 231.71698757 168.53636047 239.21526648 162.59130859 246.93603516 C161.44913902 248.41745608 160.30318284 249.89596046 159.15478516 251.37255859 C149.90864028 263.26502177 141.13386359 275.32066093 133 288 C132.5054834 288.76521973 132.0109668 289.53043945 131.50146484 290.31884766 C124.8303631 300.65637836 118.49903783 311.1547262 112.39453125 321.8359375 C110.59059695 324.99054925 108.72844211 328.09926985 106.8125 331.1875 C103.2567936 337.09358859 100.25853749 343.27338918 97.24267578 349.46582031 C95.87538547 352.25412551 94.48227084 355.02885455 93.08984375 357.8046875 C64.82152383 414.69555597 46.87922729 475.60699074 37.75 538.375 C37.62475952 539.22735229 37.49951904 540.07970459 37.3704834 540.95788574 C33.73227584 565.95651617 32.67012895 590.62819635 32.73925781 615.85302734 C32.75063294 620.02993325 32.74387297 624.20658386 32.73239613 628.38348103 C32.6710866 654.52748712 33.96262117 680.17147517 37.8125 706.0625 C38.00850296 707.40675552 38.00850296 707.40675552 38.20846558 708.77816772 C40.32744911 723.29207259 42.7603636 737.68855292 46 752 C46.19948242 752.88768066 46.39896484 753.77536133 46.60449219 754.68994141 C47.99345774 760.81279681 49.47546018 766.90964172 51 773 C51.23332031 773.94117676 51.46664062 774.88235352 51.70703125 775.85205078 C54.75954595 788.10903995 58.21159017 800.10535281 62.34033203 812.04101562 C63.32430763 814.96308084 64.19011858 817.91801236 65.0625 820.875 C66.9564132 827.11239182 69.40984746 833.0245417 72 839 C72.83647783 840.99868689 73.66980915 842.99869353 74.5 845 C74.91121094 845.98484375 75.32242188 846.9696875 75.74609375 847.984375 C76.59834154 850.03401767 77.44448092 852.08620869 78.28515625 854.140625 C80.35853365 859.18774552 82.46356403 864.15871224 85.0078125 868.98828125 C85.83325248 870.66190956 86.57955828 872.37428191 87.3046875 874.09375 C106.63325251 919.58864555 135.44304462 962.17591578 167 1000 C167.49129395 1000.59039063 167.98258789 1001.18078125 168.48876953 1001.7890625 C174.50316596 1009.00229492 180.67072519 1016.0606746 187 1023 C188.13888672 1024.27810547 188.13888672 1024.27810547 189.30078125 1025.58203125 C195.39621627 1032.36000332 201.75162264 1038.85721089 208.1875 1045.3125 C209.45267456 1046.58456299 209.45267456 1046.58456299 210.7434082 1047.88232422 C215.11395153 1052.24214176 219.55114768 1056.45449819 224.2331543 1060.47827148 C226.64450495 1062.5550918 228.97504816 1064.71567435 231.3125 1066.875 C235.82640847 1070.99098817 240.45914571 1074.90563009 245.21484375 1078.73828125 C248.0150461 1081.01221836 250.75509815 1083.34727075 253.5 1085.6875 C266.99726633 1096.94977268 281.55929159 1106.99312793 296 1117 C296.57508301 1117.4007373 297.15016602 1117.80147461 297.74267578 1118.21435547 C317.97463419 1132.24935092 339.33242387 1144.6258303 361.32763672 1155.65869141 C363.69526364 1156.84704718 366.05435495 1158.05014815 368.41015625 1159.26171875 C382.03240741 1166.23132019 395.92806303 1172.91298932 410.46875 1177.734375 C413.5093731 1178.82415585 416.4436318 1180.02115916 419.4140625 1181.28515625 C490.74836231 1211.22618144 569.23593547 1220.99934128 646 1220 C647.87461914 1219.97897217 647.87461914 1219.97897217 649.78710938 1219.95751953 C675.36274242 1219.58591432 700.87821999 1216.24220225 726.0625 1211.9375 C726.79112244 1211.81380035 727.51974487 1211.69010071 728.27044678 1211.56265259 C735.7847128 1210.27445913 743.18342595 1208.81127113 750.51635742 1206.70336914 C754.51770356 1205.5701854 758.57243356 1204.67908183 762.625 1203.75 C770.88927986 1201.81803139 779.07749628 1199.6636401 787.25 1197.375 C788.28463379 1197.08592773 789.31926758 1196.79685547 790.38525391 1196.49902344 C796.31544805 1194.82064843 802.16719244 1192.98802618 808 1191 C809.01707031 1190.67257812 810.03414062 1190.34515625 811.08203125 1190.0078125 C817.23195227 1188.01942602 823.18710991 1185.75146487 829.1328125 1183.21875 C831.74250118 1182.10945454 834.36380441 1181.04437142 837 1180 C848.8965183 1175.26430732 860.6027814 1170.29099107 872.0078125 1164.46484375 C874.03925632 1163.47033797 876.10492205 1162.54344297 878.1953125 1161.6796875 C883.2351141 1159.55043689 887.96687226 1156.83132471 892.75 1154.1875 C894.61979167 1153.16015625 896.48958333 1152.1328125 898.359375 1151.10546875 C899.75700073 1150.33481079 899.75700073 1150.33481079 901.18286133 1149.54858398 C903.96928532 1148.01688389 906.76339641 1146.49999201 909.55859375 1144.984375 C937.30268103 1129.85056438 963.54082169 1112.01605419 988 1092 C989.60351196 1090.72834068 991.20770355 1089.45753796 992.8125 1088.1875 C1002.48548847 1080.44303514 1011.85464954 1072.35986024 1021 1064 C1022.35351562 1062.78570313 1022.35351562 1062.78570313 1023.734375 1061.546875 C1031.1654021 1054.83581326 1038.28747439 1047.81974655 1045.375 1040.75 C1045.84917358 1040.27841461 1046.32334717 1039.80682922 1046.81188965 1039.32095337 C1051.89142329 1034.263301 1056.85351299 1029.16335241 1061.52001953 1023.72070312 C1063.53363139 1021.37957208 1065.64425982 1019.13322481 1067.75 1016.875 C1072.03968779 1012.17584201 1076.00037227 1007.29504191 1079.89135742 1002.26318359 C1082.86012981 998.42788736 1085.9185867 994.69495913 1089.0625 991 C1093.85692012 985.27520727 1098.2099239 979.31384774 1102.47021484 973.19091797 C1104.23584707 970.66222605 1106.01851528 968.14590048 1107.80078125 965.62890625 C1115.52820654 954.6731139 1122.95470983 943.63160321 1129.76611328 932.08251953 C1130.96195887 930.06420475 1132.1789422 928.0602965 1133.40234375 926.05859375 C1140.01673247 915.14612874 1145.83890126 903.84496239 1151.65625 892.4921875 C1154.02595082 887.86939444 1156.44963384 883.28248403 1158.9284668 878.7175293 C1162.40691664 872.29905919 1165.39227317 865.92589853 1167.890625 859.046875 C1170.07723537 853.0413958 1172.63008094 847.17100786 1175.16430664 841.30493164 C1178.50079263 833.49547559 1181.28685621 825.56514462 1183.9375 817.5 C1184.37497007 816.17756171 1184.81247042 814.85513344 1185.25 813.53271484 C1190.99240257 796.11353379 1195.99331054 778.72527985 1199.9375 760.8125 C1200.44606694 758.50638958 1200.95518037 756.2003996 1201.46484375 753.89453125 C1201.7179834 752.74605713 1201.97112305 751.59758301 1202.23193359 750.41430664 C1202.72969466 748.20159575 1203.24214885 745.99211857 1203.77197266 743.78686523 C1205.78752678 735.39517075 1207.23555441 726.97175539 1208.5 718.4375 C1208.60638794 717.7291098 1208.71277588 717.0207196 1208.8223877 716.29086304 C1212.48726818 691.80805236 1215.1556621 667.24679713 1215.16796875 642.47265625 C1215.17119731 640.91108675 1215.17456245 639.34951754 1215.17805481 637.78794861 C1215.18399585 634.53139549 1215.18590011 631.27486869 1215.18530273 628.01831055 C1215.18522179 624.73049379 1215.19212236 621.4428173 1215.20581055 618.1550293 C1215.28154065 599.66824072 1215.16212492 581.38931157 1213 563 C1212.84166607 561.58114158 1212.68337892 560.16227794 1212.52514648 558.7434082 C1212.09140568 555.03204902 1211.61966162 551.32869112 1211.125 547.625 C1211.03907593 546.97679291 1210.95315186 546.32858582 1210.86462402 545.66073608 C1210.25953231 541.10483656 1209.63354696 536.55204092 1209 532 C1208.85336914 530.93056152 1208.70673828 529.86112305 1208.55566406 528.75927734 C1205.0986293 503.99716804 1199.85729986 479.02271502 1192.62402344 455.07226562 C1191.91385686 452.71393468 1191.2264185 450.34945168 1190.5390625 447.984375 C1188.02546951 439.39693398 1185.37205043 430.90063707 1182.28125 422.5 C1181.33795339 419.92318975 1180.42245447 417.34470469 1179.53125 414.75 C1177.09934651 407.68515658 1174.58352504 400.80589377 1171.37109375 394.05078125 C1170.32561016 391.7245058 1169.37657622 389.42379445 1168.47265625 387.04296875 C1160.19316702 365.29902188 1149.96622074 343.74116722 1138.03759766 323.74707031 C1136.91676737 321.85985584 1135.82249263 319.95870551 1134.73046875 318.0546875 C1121.30607174 294.76393566 1106.43416759 272.27976585 1090 251 C1089.37279053 250.18571533 1089.37279053 250.18571533 1088.73291016 249.35498047 C1083.31016933 242.32975147 1077.75844953 235.43656407 1071.98925781 228.69262695 C1069.05358053 225.26049029 1066.19914656 221.77528017 1063.375 218.25 C1059.85662257 213.9211392 1056.09859641 209.99159736 1052.10546875 206.1015625 C1050.19598238 204.19561878 1048.43356497 202.24219146 1046.6875 200.1875 C1040.13707816 192.57073042 1032.88953358 185.45758946 1025.234375 178.95703125 C1023.41337786 177.36206697 1021.64751118 175.73822295 1019.890625 174.07421875 C1013.05421865 167.60114182 1006.08425852 161.53763089 998.6171875 155.8046875 C995.43409732 153.35789314 992.33274463 150.82286837 989.23828125 148.26538086 C968.19122577 130.90104322 945.2819998 116.15831319 922 102 C920.6850354 101.19852539 920.6850354 101.19852539 919.34350586 100.38085938 C915.15032056 97.84165921 910.98481228 95.3749176 906.5625 93.25 C902.07658359 91.05305119 897.65114799 88.76714439 893.24316406 86.41943359 C884.25874751 81.63484374 875.17497777 77.17194834 865.93115234 72.91333008 C863.85981972 71.93370235 861.81927053 70.90269151 859.77734375 69.86328125 C857.13919266 68.53473904 854.59071452 67.39970245 851.75 66.5625 C848.32937447 65.47622027 845.05189067 64.21955569 841.75 62.8125 C829.12703545 57.48567353 816.38226884 52.33633094 803.10546875 48.88671875 C800 48 800 48 796.28515625 46.57421875 C791.37468112 44.69436825 786.34151022 43.4161753 781.25 42.125 C780.23921387 41.865979 779.22842773 41.60695801 778.18701172 41.34008789 C776.11379236 40.80984653 774.0400622 40.28159824 771.96582031 39.75537109 C769.28430427 39.07241006 766.60656208 38.37666471 763.9296875 37.67578125 C750.723633 34.24961284 737.41014641 31.4999835 724 29 C722.59379395 28.73123047 722.59379395 28.73123047 721.15917969 28.45703125 C689.89256935 22.57311307 658.13862478 20.61647405 626.375 20.6875 C625.2360025 20.68995728 624.097005 20.69241455 622.92349243 20.69494629 C605.21203865 20.76352267 587.60482795 21.25242436 570.01171875 23.40625 Z " fill="#FDFDFD" transform="translate(0,0)"/>
<path d="M0 0 C1.58295983 -0.00087515 3.16591938 -0.00263177 4.74887741 -0.00517833 C9.04084545 -0.00959524 13.33271139 -0.00172741 17.62466645 0.00837779 C22.27469996 0.01709283 26.92472867 0.01408649 31.57476807 0.01257324 C39.61210598 0.01152944 47.64941119 0.01775297 55.68674088 0.02904892 C67.30706889 0.04536983 78.92738123 0.05051864 90.54771946 0.0530249 C109.4053469 0.05739171 128.26295695 0.07067318 147.12057495 0.08963013 C165.42851678 0.10801526 183.73645387 0.12215885 202.04440308 0.13064575 C203.73989702 0.13143392 203.73989702 0.13143392 205.46964337 0.13223802 C211.140719 0.13484827 216.81179466 0.13737565 222.48287034 0.13986182 C269.45830866 0.16056272 316.43372801 0.19576048 363.40914917 0.24050903 C362.07694959 2.99453447 360.81164528 5.09846585 358.68649292 7.30691528 C358.15274048 7.8690271 357.61898804 8.43113892 357.06906128 9.01028442 C356.50066528 9.60188354 355.93226929 10.19348267 355.34664917 10.80300903 C351.35375592 15.02384844 347.47915692 19.26237434 343.84664917 23.80300903 C340.52662677 27.95151409 337.0386375 31.86576199 333.40914917 35.74050903 C329.76026468 39.63627185 326.25216479 43.57385188 322.90914917 47.74050903 C319.08856427 52.50239745 315.01847114 56.95486497 310.84835815 61.4067688 C307.75134833 64.73205703 304.81293233 68.12770842 301.97164917 71.67800903 C297.94468173 76.69892851 293.61700214 81.3647272 289.20846558 86.04666138 C285.17592728 90.35267202 281.42944781 94.82303973 277.74508667 99.43191528 C274.44450821 103.40033655 270.93339026 107.15981938 267.39328003 110.9145813 C265.17285428 113.27856748 263.21345495 115.53405037 261.40914917 118.24050903 C259.36685991 118.61376321 259.36685991 118.61376321 256.79361725 118.61130333 C255.81493478 118.61767638 254.83625232 118.62404942 253.82791281 118.63061559 C252.74487828 118.62235742 251.66184375 118.61409924 250.54598999 118.60559082 C248.82900902 118.61026932 248.82900902 118.61026932 247.07734156 118.61504233 C243.8898387 118.62080461 240.70268545 118.61310798 237.51521468 118.59995365 C234.0806466 118.58907473 230.64610868 118.59551197 227.21153259 118.6000824 C221.25346426 118.60583924 215.29547715 118.60117908 209.3374176 118.59006882 C200.70339343 118.57442229 192.06947879 118.57997582 183.435453 118.59168525 C169.40243297 118.61060253 155.36942781 118.61979695 141.33639526 118.61941528 C140.49590387 118.61939784 139.65541248 118.6193804 138.78945166 118.61936243 C129.43182618 118.61891111 120.07420606 118.61560151 110.71658325 118.60848999 C109.87774482 118.60785761 109.03890639 118.60722522 108.17464861 118.60657368 C107.33678982 118.60594111 106.49893103 118.60530855 105.63568258 118.60465682 C103.94640192 118.60338709 102.25712125 118.60212168 100.56784058 118.6008606 C99.73322353 118.6002324 98.89860649 118.59960421 98.03869802 118.59895699 C84.07833887 118.5889725 70.11806819 118.59840272 56.15772772 118.62304461 C47.55735104 118.63742261 38.95728716 118.63550274 30.35692883 118.61208262 C24.44692188 118.59723818 18.53709664 118.60058995 12.62709665 118.61771153 C9.22615766 118.62697304 5.82613639 118.62563302 2.42517281 118.607481 C-22.03061305 118.48511757 -43.22312947 121.5111931 -61.54788208 139.04519653 C-79.21065125 158.02507468 -84.58224677 179.27465375 -84.00100708 204.71316528 C-83.62419196 212.9546671 -81.92104019 219.68645926 -78.59085083 227.24050903 C-78.33384399 227.84636841 -78.07683716 228.45222778 -77.81204224 229.07644653 C-69.70057398 247.95839105 -55.31250798 261.20607516 -36.59085083 269.24050903 C-26.47772031 273.03616939 -16.43139608 274.41055609 -5.71073914 274.33384705 C-4.85174623 274.33187921 -3.99275332 274.32991137 -3.10773033 274.3278839 C-0.24733031 274.32020399 2.61298669 274.30533548 5.47335815 274.29055786 C7.53246913 274.28372215 9.59158183 274.27739276 11.6506958 274.27153015 C16.07967356 274.25822088 20.50862896 274.24208505 24.93758965 274.22397804 C31.96431586 274.196033 38.99104191 274.17909766 46.01780701 274.164505 C48.42999556 274.15936105 50.84218409 274.15420442 53.2543726 274.14903545 C54.46244418 274.14644989 55.67051577 274.14386433 56.91519558 274.14120042 C73.26325073 274.10526755 89.61123716 274.0600871 105.959198 273.99368286 C116.99888448 273.94892907 128.03851055 273.91884545 139.07828003 273.90482539 C144.90685504 273.89681479 150.73519911 273.88158138 156.56368828 273.84815407 C203.74996212 273.5855404 246.32824057 277.68664608 284.40914917 308.24050903 C284.94427124 308.66734985 285.47939331 309.09419067 286.0307312 309.53396606 C293.87703083 315.83265391 300.97637009 322.46372029 307.40914917 330.24050903 C307.83373413 330.74936646 308.25831909 331.25822388 308.69577026 331.78250122 C322.10653119 348.11771168 331.85912552 367.89570806 337.40914917 388.24050903 C337.72110229 389.3452356 338.03305542 390.44996216 338.35446167 391.58816528 C341.79254496 404.52270195 342.85324486 417.0463286 342.84664917 430.36550903 C342.84725342 431.61773758 342.84725342 431.61773758 342.84786987 432.89526367 C342.74345378 470.6187281 330.20323227 504.95028023 306.40914917 534.24050903 C305.63828979 535.20988403 304.86743042 536.17925903 304.07321167 537.17800903 C298.53206934 544.05942767 292.73773132 550.7325584 286.97067261 557.42459106 C285.40656387 559.24351551 283.84833841 561.06730983 282.29196167 562.89285278 C277.82682994 568.12690875 273.35251588 573.33887947 268.72164917 578.42800903 C264.94501957 582.59042337 261.38716542 586.89700201 257.85055542 591.26394653 C254.62422524 595.19748828 251.31033788 599.05167728 247.99191284 602.90750122 C244.6116264 606.83575439 241.25143618 610.77988383 237.90914917 614.74050903 C234.11403631 619.23470367 230.30123892 623.71315281 226.47164917 628.17800903 C225.97495728 628.75720093 225.47826538 629.33639282 224.96652222 629.93313599 C222.41404498 632.90806945 219.85844935 635.88027984 217.29977417 638.84988403 C212.79804 644.08009098 208.31768785 649.31683723 203.97164917 654.67800903 C196.78052809 663.52661174 189.27200515 672.12204806 181.59664917 680.55300903 C178.83498685 683.59932732 176.20500859 686.69937235 173.65914917 689.92800903 C168.15284021 696.90630158 162.25466321 703.54690681 156.40914917 710.24050903 C149.6632202 717.97186329 142.9750719 725.7211118 136.51852417 733.69754028 C133.66732002 737.13482529 130.65954813 740.41740706 127.65133667 743.71707153 C125.36399013 746.29133262 123.19366646 748.93340393 121.03414917 751.61550903 C117.35278228 756.16911616 113.48140444 760.4763342 109.49557495 764.759552 C105.71561688 768.84560091 102.21435974 773.11775171 98.72555542 777.45535278 C96.19294096 780.50046932 93.54473419 783.40530546 90.84664917 786.30300903 C86.82974339 790.61833326 83.09067529 795.07613271 79.45602417 799.71707153 C74.76870306 805.4957155 69.6876013 810.99799691 64.40914917 816.24050903 C64.1048001 793.03090513 63.87589901 769.82163251 63.73559093 746.61043453 C63.6686967 735.83174169 63.5775815 725.05429218 63.42843628 714.27639771 C63.29842721 704.87684574 63.21489129 695.47819454 63.18599874 686.07776839 C63.16912102 681.10461907 63.12977012 676.13404543 63.03465843 671.161726 C62.94565081 666.4699979 62.91934434 661.78187634 62.93874931 657.08938408 C62.93520598 655.37811081 62.90978662 653.6667026 62.859478 651.95616531 C62.57762625 641.86835957 63.80127058 635.60528932 70.7084198 627.96073914 C72.38801125 626.21271026 74.09538507 624.50469993 75.83571589 622.8172456 C78.12806292 620.52008598 80.09226709 618.04165415 82.09664917 615.49050903 C85.87762471 610.81785919 89.88474937 606.39838162 93.95211792 601.97488403 C97.07582832 598.49857675 100.00058238 594.88325839 102.93649292 591.24832153 C105.82595192 587.73349779 108.7959361 584.29637188 111.78414917 580.86550903 C115.87931497 576.1631904 119.95219869 571.44526426 123.97164917 566.67800903 C132.41756598 556.66531345 140.96533024 546.74164701 149.55099487 536.84866333 C154.1994861 531.48961008 158.82107218 526.10795405 163.43258667 520.71707153 C165.454199 518.35385342 167.48061354 515.9948786 169.51071167 513.63894653 C174.10292052 508.30500839 178.66559874 502.9600869 183.09664917 497.49050903 C185.89727312 494.03623856 188.77577585 490.70261008 191.78414917 487.42800903 C195.86380497 482.95033803 199.61471586 478.27492621 203.31393433 473.48342896 C206.15886948 469.80177751 209.11217554 466.25903811 212.15914917 462.74050903 C221.77961511 451.09559252 225.44932195 439.21593779 224.40914917 424.24050903 C222.54884921 415.05213559 216.34651123 407.95149407 208.98727417 402.42019653 C194.00492091 392.92501087 178.56790628 391.94325727 161.38717651 391.9692688 C159.46407349 391.96487586 157.54097238 391.95957164 155.61787415 391.95343018 C151.48904637 391.94196657 147.36026966 391.93647337 143.23142624 391.93554878 C136.67942459 391.93359719 130.1275272 391.9154806 123.57556152 391.89479065 C107.29142122 391.84573475 91.00725251 391.81483427 74.72305298 391.79348755 C62.08136149 391.776885 49.43975959 391.75382912 36.79812777 391.7104668 C31.36372428 391.69241092 25.92944263 391.68005426 20.49500656 391.6817646 C-7.51336584 391.6879475 -34.00776415 391.01626986 -61.25881958 383.85037231 C-63.43774818 383.28054781 -65.62141738 382.73833175 -67.80960083 382.20535278 C-96.53853472 374.99392324 -121.93957158 358.92815448 -143.15530396 338.6086731 C-144.40628701 337.41640965 -145.67667408 336.24457181 -146.95022583 335.07644653 C-162.51157637 320.36699474 -173.54936093 301.44353888 -182.59085083 282.24050903 C-183.06522583 281.23375122 -183.53960083 280.22699341 -184.02835083 279.18972778 C-192.71751793 259.55764088 -196.73196091 237.3232743 -196.75881958 215.94754028 C-196.76214798 214.99844284 -196.76547638 214.0493454 -196.76890564 213.07148743 C-196.77393423 211.07566812 -196.77631524 209.07984053 -196.77615356 207.08401489 C-196.77833265 204.07809118 -196.7965121 201.07253961 -196.81546021 198.06668091 C-196.84715834 187.2664349 -196.44847261 176.90559634 -194.59085083 166.24050903 C-194.46508667 165.47714233 -194.33932251 164.71377563 -194.20974731 163.92727661 C-193.47308485 159.6714287 -192.52621194 155.45628351 -191.59085083 151.24050903 C-191.34979614 150.1074231 -191.10874146 148.97433716 -190.86038208 147.80691528 C-184.0617832 119.17619607 -168.81545784 91.39652775 -149.59085083 69.24050903 C-148.88444458 68.42324341 -148.17803833 67.60597778 -147.45022583 66.76394653 C-137.37397136 55.34660783 -126.79729845 45.32008922 -114.59085083 36.24050903 C-113.75038208 35.60500122 -112.90991333 34.96949341 -112.04397583 34.31472778 C-79.53308184 10.58613905 -39.87123074 -0.16776412 0 0 Z " fill="#FCFCFC" transform="translate(448.5908508300781,264.7594909667969)"/>
<path d="M0 0 C1.26618957 -0.000161 1.26618957 -0.000161 2.55795872 -0.00032526 C3.53329874 -0.01013955 4.50863877 -0.01995384 5.51353455 -0.03006554 C6.58771893 -0.02046053 7.66190331 -0.01085552 8.76863873 -0.00095946 C10.47760097 -0.00926105 10.47760097 -0.00926105 12.22108769 -0.01773036 C16.06008313 -0.03140322 19.89843584 -0.01633026 23.73741925 -0.001463 C26.48208989 -0.0030368 29.22673678 -0.01058975 31.97139752 -0.01783568 C38.66974836 -0.03179639 45.36791111 -0.02418735 52.06625305 -0.00916009 C59.88043995 0.00770094 67.69457996 0.00448878 75.50877942 0.00074583 C89.47240039 -0.00513976 103.43593138 0.00905659 117.39952862 0.03369325 C130.91323497 0.0575332 144.42682067 0.06473077 157.94054425 0.05420107 C172.66779351 0.04274626 187.39498688 0.04092421 202.12223554 0.05529916 C203.69897162 0.05682485 205.27570772 0.05834521 206.85244381 0.05986017 C207.62808299 0.06061798 208.40372217 0.0613758 209.20286556 0.06215658 C214.63174911 0.06687084 220.0606075 0.06506781 225.48949063 0.06079477 C232.13246277 0.05582505 238.77532161 0.06203887 245.41826807 0.08168907 C248.79912948 0.09144807 252.17967939 0.09514307 255.56056988 0.08879656 C270.18286669 0.06481285 284.30864219 0.60181004 298.72958601 3.13045961 C300.78817595 3.49058925 302.84947135 3.82137801 304.91428196 4.14368719 C334.48744238 8.92286064 359.87734754 24.91993163 381.84337628 44.50024599 C382.62068097 45.19247255 383.39798565 45.88469911 384.19884503 46.59790224 C402.04168713 63.46572564 414.29211922 85.73279332 422.84337628 108.50024599 C423.24040753 109.55727724 423.63743878 110.61430849 424.04650128 111.70337099 C426.50414972 118.99829572 427.98558558 126.5331062 429.53087628 134.06274599 C429.74574688 135.10382509 429.96061749 136.14490419 430.18199933 137.21753114 C435.91107831 166.29587124 433.35888283 196.97746534 425.84337628 225.50024599 C425.63873761 226.28286806 425.43409894 227.06549013 425.22325909 227.87182802 C412.64940948 274.92509035 383.62287159 319.04017299 341.15587628 344.08520693 C328.2174573 351.42147019 315.07470259 357.20423285 300.84337628 361.50024599 C300.17934796 361.70585146 299.51531964 361.91145693 298.83116925 362.12329286 C278.08468816 368.46412629 257.53822956 368.92546153 236.04103124 368.8044278 C232.08398307 368.78542029 228.12692485 368.78389192 224.16983807 368.78035158 C216.70826188 368.77110069 209.24682069 368.74658329 201.78530341 368.71630311 C193.27718411 368.68253976 184.76905769 368.66621849 176.26088786 368.6512168 C158.78830648 368.62002579 141.31585574 368.56740383 123.84337628 368.50024599 C126.10459858 364.66055606 128.58527006 361.17512479 131.28087628 357.62524599 C148.83456485 333.52911722 158.46485908 304.90624833 162.90636456 275.66845888 C163.08289563 274.50979814 163.25942669 273.35113741 163.44130719 272.15736574 C163.57398999 271.28051622 163.70667279 270.4036667 163.84337628 269.50024599 C164.85211804 269.49215914 165.8608598 269.48407228 166.90016949 269.47574037 C176.46140858 269.39785896 186.02251267 269.31001825 195.58357441 269.2127189 C200.49762095 269.16302268 205.41164871 269.11669295 210.32579815 269.07837099 C215.07863287 269.0411779 219.83129946 268.99473156 224.58398831 268.94218248 C226.38659314 268.92381746 228.18923376 268.90864546 229.99189389 268.89690202 C244.10156626 268.80179583 257.85994554 268.68670828 270.84337628 262.50024599 C271.81017315 262.06712099 272.77697003 261.63399599 273.77306378 261.18774599 C293.73111139 251.84352014 307.81756899 234.06225536 315.55529034 213.61938661 C324.0011709 189.82056323 325.97218871 161.30467188 315.00450909 137.94629091 C310.92329316 129.78866726 306.45914613 121.86156315 299.84337628 115.50024599 C299.84337628 114.84024599 299.84337628 114.18024599 299.84337628 113.50024599 C298.94232159 113.08839052 298.94232159 113.08839052 298.02306378 112.66821474 C295.84337628 111.50024599 295.84337628 111.50024599 292.96837628 108.81274599 C280.46500847 97.86225897 263.02848165 93.35894898 246.81217206 93.3420276 C245.29996452 93.33462064 245.29996452 93.33462064 243.75720733 93.32706404 C240.37667088 93.31170371 236.99615345 93.30332992 233.61559308 93.29492372 C231.18771461 93.28533872 228.7598378 93.27532828 226.3319627 93.26492494 C220.39935756 93.24063324 214.4667474 93.22088556 208.53411993 93.2031722 C201.53841158 93.18206969 194.54272622 93.1556339 187.5470371 93.12900073 C174.95417874 93.08122835 162.36130876 93.03806731 149.76842511 92.99756044 C137.75864731 92.95892338 125.74888409 92.91751395 113.73912823 92.87256044 C113.01067145 92.86983674 112.28221466 92.86711303 111.53168343 92.86430679 C108.59685696 92.85333208 105.66203051 92.84235428 102.72720408 92.83137067 C37.43255975 92.58741194 -27.8614343 92.42228576 -93.15662372 92.50024599 C-88.85192315 87.35769442 -84.34189132 82.54197874 -79.59412372 77.80835146 C-78.86161396 77.07408937 -78.12910419 76.33982729 -77.37439716 75.58331484 C-74.9709687 73.17551273 -72.56393355 70.77135455 -70.15662372 68.36743349 C-68.47548803 66.68562355 -66.79450077 65.00366524 -65.11365497 63.32156557 C-61.59835103 59.80479079 -58.08125357 56.28982227 -54.56287372 52.77612489 C-50.06048046 48.27943293 -45.56259748 43.77826047 -41.06604755 39.27572626 C-37.59855727 35.80461754 -34.12868266 32.33590018 -30.65808856 28.86789507 C-28.9988139 27.20928589 -27.34027735 25.54993795 -25.68250263 23.88982958 C-23.3637919 21.56857081 -21.04188496 19.25055616 -18.71912372 16.93335146 C-17.69963642 15.91082781 -17.69963642 15.91082781 -16.65955341 14.86764711 C-13.82023973 12.04086192 -10.9882952 9.30595799 -7.87146747 6.7856769 C-5.15809485 4.72541832 -5.15809485 4.72541832 -3.78160739 2.38869226 C-2.15662372 0.50024599 -2.15662372 0.50024599 0 0 Z " fill="#008DFB" transform="translate(653.1566237211227,446.499754011631)"/>
<path d="M0 0 C0.33 0 0.66 0 1 0 C1 55.77 1 111.54 1 169 C-47.18 169 -95.36 169 -145 169 C-145 116.86 -145 64.72 -145 11 C-144.67 11 -144.34 11 -144 11 C-143.67 62.48 -143.34 113.96 -143 167 C-140.03 163.37 -137.06 159.74 -134 156 C-129.375 150.8125 -129.375 150.8125 -127.10546875 148.31640625 C-123.05840105 143.86388093 -119.12236229 139.31728945 -115.21484375 134.7421875 C-114.18492521 133.53643324 -113.15497647 132.33070477 -112.125 131.125 C-111.34552002 130.2122229 -111.34552002 130.2122229 -110.55029297 129.28100586 C-107.52107467 125.74376142 -104.44851417 122.25607423 -101.3125 118.8125 C-97.46148995 114.57291957 -93.85156045 110.17067888 -90.25 105.71875 C-88.06498431 103.07852271 -85.80828609 100.5327028 -83.5 98 C-80.47717579 94.68010514 -77.57487839 91.30235888 -74.75 87.8125 C-67.87776432 79.32468611 -60.6405941 71.14444829 -53.4375 62.9375 C-46.62888423 55.16587902 -39.86912502 47.34955544 -33.375 39.3125 C-30.3600913 35.59556382 -27.2391678 32.0232179 -24 28.5 C-19.1047032 23.17409839 -14.54735808 17.62274681 -10 12 C-8.17444101 9.76435168 -6.33935082 7.53680822 -4.5 5.3125 C-3.6646875 4.29800781 -2.829375 3.28351562 -1.96875 2.23828125 C-1.3190625 1.49964844 -0.669375 0.76101563 0 0 Z " fill="#0273F9" transform="translate(657,913)"/>
<path d="M0 0 C2.61376953 -0.34057617 2.61376953 -0.34057617 5.8828125 -0.29296875 C7.04941406 -0.28330078 8.21601563 -0.27363281 9.41796875 -0.26367188 C10.64128906 -0.23853516 11.86460937 -0.21339844 13.125 -0.1875 C14.97158203 -0.16719727 14.97158203 -0.16719727 16.85546875 -0.14648438 C19.90407843 -0.11103543 22.951825 -0.06162079 26 0 C23.64622667 7.52253233 20.663773 14.65991725 17.5 21.875 C16.93297644 23.17528261 16.36617065 24.47566021 15.79956055 25.77612305 C10.03561604 38.9857644 4.19781401 52.16322895 -1.63452148 65.34277344 C-7.13013355 77.76161666 -12.60580983 90.18900724 -18.0625 102.625 C-18.79572578 104.29533312 -19.52896144 105.96566191 -20.26220703 107.63598633 C-23.78238005 115.65662816 -27.29801893 123.67922995 -30.80665588 131.70492554 C-32.48568151 135.54476286 -34.16643373 139.38384319 -35.84738159 143.22283936 C-36.65337554 145.06494352 -37.45849943 146.90742864 -38.26272583 148.75030518 C-39.37228351 151.29278846 -40.48465526 153.8340226 -41.59765625 156.375 C-41.92902588 157.13638275 -42.26039551 157.8977655 -42.60180664 158.68222046 C-44.88613886 163.88613886 -44.88613886 163.88613886 -46 165 C-47.92667507 165.08748207 -49.85651861 165.10697334 -51.78515625 165.09765625 C-52.95498047 165.09443359 -54.12480469 165.09121094 -55.33007812 165.08789062 C-56.56177734 165.07951172 -57.79347656 165.07113281 -59.0625 165.0625 C-60.91584961 165.05573242 -60.91584961 165.05573242 -62.80664062 165.04882812 C-65.87114117 165.03699608 -68.93554721 165.02051173 -72 165 C-71.53875451 163.58388546 -71.07464663 162.16870309 -70.609375 160.75390625 C-70.35124023 159.9657251 -70.09310547 159.17754395 -69.82714844 158.36547852 C-68.78874486 155.39585271 -67.53553056 152.56326046 -66.23046875 149.703125 C-64.64140248 146.21222385 -63.10046969 142.70115658 -61.5625 139.1875 C-61.25586426 138.48778076 -60.94922852 137.78806152 -60.63330078 137.06713867 C-58.91986078 133.1451738 -57.24844198 129.21029963 -55.625 125.25 C-53.00074172 118.88921504 -50.14678725 112.63602257 -47.30834961 106.36889648 C-44.83038682 100.88431805 -42.43180123 95.37796242 -40.16796875 89.80078125 C-39.20170708 87.48369224 -38.20266009 85.19005143 -37.18041992 82.89746094 C-33.89823884 75.52667986 -30.63798893 68.14620495 -27.3757019 60.76660156 C-26.53676232 58.86891093 -25.69766949 56.97128803 -24.85842896 55.07373047 C-20.45301417 45.11192437 -16.05453392 35.14739616 -11.70703125 25.16015625 C-11.38128113 24.4124144 -11.05553101 23.66467255 -10.71990967 22.89427185 C-9.20598083 19.41810291 -7.6953132 15.94057642 -6.18994141 12.46069336 C-5.65667327 11.23416973 -5.12331322 10.00768607 -4.58984375 8.78125 C-4.13472412 7.73001953 -3.67960449 6.67878906 -3.21069336 5.59570312 C-2 3 -2 3 0 0 Z " fill="#15EBE1" transform="translate(384,708)"/>
<path d="M0 0 C0.55511606 7.34390086 0.86653549 14.64576563 0.70703125 22.0078125 C0.68358643 23.21840332 0.6601416 24.42899414 0.63598633 25.67626953 C-0.14555741 29.76069811 -1.57711868 31.47212121 -4.5625 34.3125 C-6.29173722 35.19455457 -8.02605209 36.06942468 -9.79443359 36.87011719 C-14.63962418 39.35224493 -18.95399049 42.78055792 -23.375 45.9375 C-25.37419503 47.32595548 -27.37546832 48.71142376 -29.37890625 50.09375 C-35.14878808 54.09238972 -40.86084726 58.16604042 -46.55078125 62.27734375 C-49 64 -49 64 -51 65 C-49.55967729 69.32096814 -46.253352 70.85828624 -42.625 73.3125 C-41.07163458 74.38486397 -39.51960126 75.45915951 -37.96875 76.53515625 C-37.15535156 77.0986377 -36.34195313 77.66211914 -35.50390625 78.24267578 C-31.32589136 81.17494481 -27.22553108 84.21074883 -23.125 87.25 C-21.62769218 88.35949379 -20.1302977 89.46887063 -18.6328125 90.578125 C-17.90006104 91.13951172 -17.16730957 91.70089844 -16.41235352 92.27929688 C-13.96577871 94.09075737 -13.96577871 94.09075737 -11.00756836 95.67382812 C-3.47696458 100.16638364 -3.47696458 100.16638364 -2.12792969 105.35253906 C-1.91687309 109.29124259 -2.03699767 113.06590385 -2.3125 117 C-2.36776841 118.36047807 -2.41794275 119.72117312 -2.46289062 121.08203125 C-2.5920656 124.39360776 -2.77236063 127.69397592 -3 131 C-6.40467131 130.46997274 -8.67871501 129.83017989 -11.390625 127.69921875 C-12.00873047 127.22291016 -12.62683594 126.74660156 -13.26367188 126.25585938 C-13.91916016 125.73830078 -14.57464844 125.22074219 -15.25 124.6875 C-16.68063063 123.58508065 -18.11297814 122.48488641 -19.546875 121.38671875 C-20.28228516 120.82259277 -21.01769531 120.2584668 -21.77539062 119.67724609 C-25.28807307 117.02885623 -28.89096135 114.51463399 -32.5 112 C-38.82434555 107.57765889 -45.0280281 103.02107144 -51.18261719 98.3659668 C-55.49165535 95.11282457 -59.84511827 91.93450725 -64.25 88.8125 C-83.75260158 74.9895937 -83.75260158 74.9895937 -84.73046875 71.078125 C-85.24827992 66.74090324 -85.60677426 63.12285484 -84 59 C-79.91652466 54.05899483 -74.01049915 50.8870662 -68.59619141 47.59716797 C-64.4194449 45.02764797 -60.40899714 42.22356997 -56.375 39.4375 C-55.58335449 38.89996094 -54.79170898 38.36242187 -53.97607422 37.80859375 C-48.13282167 33.8355179 -42.47395885 29.66075387 -36.8515625 25.38305664 C-31.63890093 21.43373427 -26.3005366 17.70212168 -20.89160156 14.02758789 C-15.61259299 10.43940931 -10.41390239 6.74947283 -5.25146484 2.99560547 C-1.10511596 0 -1.10511596 0 0 0 Z " fill="#00D9F6" transform="translate(297,725)"/>
<path d="M0 0 C3.38985605 1.24327837 6.12996003 2.63122406 9.01171875 4.80078125 C9.7601001 5.35902588 10.50848145 5.91727051 11.27954102 6.49243164 C12.47148071 7.39336548 12.47148071 7.39336548 13.6875 8.3125 C15.39786814 9.58930472 17.10881941 10.86532862 18.8203125 12.140625 C19.6855957 12.78708984 20.55087891 13.43355469 21.44238281 14.09960938 C25.28904876 16.95780408 29.17279205 19.76330022 33.0625 22.5625 C33.80008545 23.09399658 34.5376709 23.62549316 35.29760742 24.1730957 C36.78689528 25.24606545 38.2763966 26.31873899 39.76611328 27.39111328 C43.51359792 30.09012134 47.25652702 32.79543222 51 35.5 C52.48046031 36.5690221 53.96092909 37.63803248 55.44140625 38.70703125 C58.63780614 41.01542629 61.83289787 43.32562051 65.02734375 45.63671875 C65.84912109 46.23097656 66.67089844 46.82523438 67.51757812 47.4375 C69.09602805 48.57897791 70.67416785 49.72088482 72.25195312 50.86328125 C72.96158203 51.37632812 73.67121094 51.889375 74.40234375 52.41796875 C75.02616943 52.86938232 75.64999512 53.3207959 76.29272461 53.78588867 C77.84109387 54.88699554 79.41912991 55.94608661 81 57 C82.43678461 62.63370807 83.00715004 68.43414511 81 74 C77.25170724 78.75309826 71.60074989 81.55872109 66.4375 84.53759766 C62.47784766 86.91323042 58.82648767 89.68360956 55.125 92.4375 C48.14763004 97.51844101 41.05293733 102.40946197 33.91040039 107.25439453 C28.88448509 110.67560947 23.94544852 114.19050485 19.0625 117.8125 C1.26473577 131 1.26473577 131 -2 131 C-4.34102332 107.43850069 -4.34102332 107.43850069 -0.85009766 100.81982422 C2.34018539 97.3089413 6.43502759 95.31242962 10.64648438 93.24316406 C15.04192475 90.92142315 18.97333791 87.8998754 23 85 C24.69388559 83.81826455 26.38918662 82.63855523 28.0859375 81.4609375 C33.30323688 77.81025957 38.43147218 74.04333538 43.5078125 70.19921875 C47.78640293 67 47.78640293 67 50 67 C46.47283052 63.28891852 42.77376538 60.23273784 38.5625 57.3125 C37.31115844 56.43104562 36.05985747 55.54953362 34.80859375 54.66796875 C34.17421387 54.22372559 33.53983398 53.77948242 32.88623047 53.32177734 C24.55907028 47.48651391 16.32324956 41.53703961 8.1875 35.4375 C7.48705566 34.91236816 6.78661133 34.38723633 6.06494141 33.84619141 C1.13465537 30.13465537 1.13465537 30.13465537 0 29 C-0.08775605 26.85441173 -0.10695219 24.70595579 -0.09765625 22.55859375 C-0.09443359 21.25341797 -0.09121094 19.94824219 -0.08789062 18.60351562 C-0.07953401 17.2148431 -0.07106905 15.82617123 -0.0625 14.4375 C-0.05748666 13.04492344 -0.05292347 11.65234519 -0.04882812 10.25976562 C-0.03699434 6.8398013 -0.0205088 3.41992156 0 0 Z " fill="#01CCF9" transform="translate(432,725)"/>
<path d="M0 0 C0.79209661 0.0037972 1.58419322 0.00759441 2.40029275 0.01150668 C3.77001527 0.01075862 3.77001527 0.01075862 5.16740894 0.00999546 C6.17712077 0.01971209 7.18683259 0.02942872 8.22714174 0.0394398 C9.29465775 0.0418145 10.36217377 0.0441892 11.46203876 0.04663587 C15.06282936 0.05710767 18.66337969 0.08199318 22.26409853 0.10673106 C24.83578605 0.11715018 27.40747729 0.1266867 29.97917116 0.13540232 C35.52804544 0.15560813 41.07684421 0.18318288 46.62565935 0.21572077 C54.64837083 0.26275485 62.67110172 0.29874059 70.69388072 0.33200403 C83.70935445 0.38626901 96.72476858 0.4495062 109.74017274 0.51835215 C122.38566128 0.58522227 135.03115908 0.64788768 147.67669618 0.70487559 C148.84531678 0.71014425 148.84531678 0.71014425 150.03754587 0.71551935 C153.9458469 0.73311371 157.85414828 0.75062515 161.76244986 0.76809537 C194.20105531 0.9132042 226.63957411 1.07285984 259.07806337 1.24198496 C259.07806337 1.57198496 259.07806337 1.90198496 259.07806337 2.24198496 C177.56806337 2.57198496 96.05806337 2.90198496 12.07806337 3.24198496 C12.07806337 3.57198496 12.07806337 3.90198496 12.07806337 4.24198496 C10.34860684 4.0996304 8.61950683 3.95294114 6.89056337 3.80448496 C5.44616884 3.68266856 5.44616884 3.68266856 3.97259462 3.55839121 C1.29156735 3.26532346 -1.28823523 2.81494742 -3.92193663 2.24198496 C-1.92193663 0.24198496 -1.92193663 0.24198496 0 0 Z " fill="#003458" transform="translate(650.9219366312027,537.758015036583)"/>
<path d="M0 0 C6.50847007 0.5354593 11.99532049 2.19098221 18.0625 4.5625 C19.44514038 5.09931396 19.44514038 5.09931396 20.85571289 5.64697266 C39.91241223 13.21133753 55.75710769 24.41262712 71 38 C71.77730469 38.69222656 72.55460937 39.38445312 73.35546875 40.09765625 C92.94729063 58.61888677 107.90164551 85.04420378 115 111 C115 111.99 115 112.98 115 114 C114.34 114 113.68 114 113 114 C112.16112944 111.56427941 111.32873471 109.12666783 110.5 106.6875 C110.14228516 105.65206055 110.14228516 105.65206055 109.77734375 104.59570312 C108.76791737 101.61068511 108 99.17341086 108 96 C107.34 96 106.68 96 106 96 C105.83491943 95.45545166 105.66983887 94.91090332 105.49975586 94.34985352 C100.50057552 78.54811858 91.4872209 64.69617836 81 52 C80.56155762 51.46906738 80.12311523 50.93813477 79.67138672 50.39111328 C74.5594136 44.29962396 69.01506736 39.08497606 62.765625 34.1796875 C60.94978465 32.74855909 59.16641906 31.27503718 57.421875 29.7578125 C42.79164051 17.09871738 19.5256523 3.73561354 0 2 C0 1.34 0 0.68 0 0 Z " fill="#01B4E5" transform="translate(964,453)"/>
<path d="M0 0 C32.74851734 -0.04578003 65.49702638 -0.08102052 98.24556843 -0.10213066 C102.11203591 -0.10463207 105.97850332 -0.10722071 109.8449707 -0.10986328 C110.99958436 -0.11065021 110.99958436 -0.11065021 112.17752355 -0.11145304 C124.6402674 -0.1201551 137.10299279 -0.13592399 149.56572569 -0.15430559 C162.35410868 -0.17301016 175.142482 -0.18411791 187.9308781 -0.18817699 C195.82167763 -0.19092089 203.712425 -0.19958663 211.60320847 -0.21583293 C217.65437424 -0.22765684 223.70549516 -0.22890993 229.75667381 -0.22621536 C232.2386876 -0.22676609 234.72070335 -0.23075104 237.20270538 -0.23841095 C240.58972334 -0.24835217 243.97651758 -0.24597171 247.36354065 -0.24050903 C248.8387528 -0.24924756 248.8387528 -0.24924756 250.34376723 -0.25816262 C255.6253852 -0.23511782 260.00206252 0.26369482 265 2 C265 2.66 265 3.32 265 4 C259 3 259 3 256.43446159 2.4747324 C251.83461033 1.83891267 247.31197788 1.84647358 242.6736145 1.84178162 C241.63534921 1.83684364 240.59708391 1.83190566 239.52735603 1.82681805 C236.0496517 1.81146462 232.57196581 1.80308822 229.09423828 1.79467773 C226.60077248 1.78509752 224.1073083 1.77508736 221.61384583 1.76467896 C216.24625307 1.74324088 210.87866281 1.72479362 205.51105118 1.70907402 C197.7504308 1.68634107 189.98983738 1.65820304 182.22923993 1.62875474 C169.63753906 1.58112077 157.04582715 1.53784525 144.45410156 1.49731445 C132.22394959 1.45793816 119.99380743 1.41650683 107.76367188 1.37231445 C107.00953833 1.36959018 106.25540479 1.36686591 105.47841872 1.36405908 C101.69507238 1.35037925 97.91172618 1.33665905 94.12838006 1.32291877 C62.75227362 1.20901991 31.37614661 1.1022687 0 1 C0 0.67 0 0.34 0 0 Z " fill="#01A8E3" transform="translate(657,538)"/>
<path d="M0 0 C1.04181752 0.00873852 1.04181752 0.00873852 2.10468185 0.01765358 C2.84143012 0.01594473 3.5781784 0.01423589 4.33725238 0.01247525 C6.81865394 0.00916752 9.29978814 0.02020496 11.781165 0.03111184 C13.55483641 0.03167567 15.32850828 0.03135993 17.10217941 0.03022683 C21.92839392 0.02965124 26.75450973 0.04143877 31.58070123 0.05537474 C36.6202449 0.06784788 41.65979065 0.0690499 46.69934738 0.07142556 C56.24744746 0.0776504 65.79550194 0.09407476 75.34358191 0.11412454 C86.21161344 0.13645235 97.07964711 0.14746911 107.94769585 0.15751541 C130.3087148 0.17844014 152.66969321 0.21363557 175.03067672 0.25816262 C175.03067672 0.58816262 175.03067672 0.91816262 175.03067672 1.25816262 C120.58067672 1.58816262 66.13067672 1.91816262 10.03067672 2.25816262 C10.03067672 3.24816262 10.03067672 4.23816262 10.03067672 5.25816262 C6.05690843 6.82209618 3.2168977 5.61961554 -0.71932328 4.32066262 C-2.4750264 3.75025246 -2.4750264 3.75025246 -4.26619828 3.16831887 C-5.15822953 2.86796731 -6.05026078 2.56761574 -6.96932328 2.25816262 C-4.54800519 -0.16315547 -3.3032736 0.02084643 0 0 Z " fill="#042351" transform="translate(674.9693232774734,540.7418373823166)"/>
<path d="M0 0 C2.49642431 -0.29741425 4.74574409 -0.39928932 7.24438477 -0.37231445 C7.99099869 -0.37596512 8.73761261 -0.37961578 9.5068512 -0.38337708 C11.98526491 -0.39150844 14.46302957 -0.37784259 16.94140625 -0.36328125 C18.66576639 -0.36276257 20.39012713 -0.36328058 22.11448669 -0.36479187 C25.73697692 -0.36470201 29.35924527 -0.35425108 32.98168945 -0.33618164 C37.60609911 -0.31361268 42.23018105 -0.31292734 46.85463047 -0.31969929 C50.42104457 -0.3230575 53.98738521 -0.31637252 57.55378532 -0.30657005 C59.25727897 -0.30274064 60.96078083 -0.30156039 62.66427803 -0.3031559 C79.05017357 -0.30571931 79.05017357 -0.30571931 87 2 C87 2.33 87 2.66 87 3 C57.63 3 28.26 3 -2 3 C-1.34 2.01 -0.68 1.02 0 0 Z " fill="#0961E7" transform="translate(562,536)"/>
<path d="M0 0 C0 3.84759538 -0.99356258 5.72281888 -3 9 C-4.97321053 10.3726682 -6.97543152 11.70427617 -9 13 C-11.72096376 15.73547557 -13.76428267 18.29284801 -15 22 C-15.99 22.495 -15.99 22.495 -17 23 C-17.37125 23.70125 -17.7425 24.4025 -18.125 25.125 C-20.31997513 28.49062853 -22.8897225 30.5947102 -25.9375 33.171875 C-29.62470395 36.4400785 -32.85918861 40.0295076 -35.33203125 44.30078125 C-37.40418809 47.65408425 -39.82361478 50.56634627 -42.375 53.5625 C-42.84421875 54.12646484 -43.3134375 54.69042969 -43.796875 55.27148438 C-46.62341178 58.60945253 -49.54792005 61.28934615 -53 64 C-53.66 64.99 -54.32 65.98 -55 67 C-55.99 66.67 -56.98 66.34 -58 66 C-57.154375 65.10539062 -56.30875 64.21078125 -55.4375 63.2890625 C-49.6891882 57.17399975 -44.10966425 51.05171118 -38.953125 44.421875 C-35.9692693 40.72189394 -32.7196297 37.27572614 -29.5 33.78125 C-27.09469185 31.10534468 -24.81770751 28.36540076 -22.5625 25.5625 C-18.43689715 20.45113363 -14.06085284 15.62982877 -9.59765625 10.81640625 C-6.32773494 7.27112315 -3.14827809 3.65329198 0 0 Z " fill="#1556F2" transform="translate(573,1012)"/>
<path d="M0 0 C18.41656686 5.61087824 30.41118724 20.24250318 39.3359375 36.421875 C40.28008882 38.25338658 41.14486207 40.12527455 42 42 C42.48339844 43.03640625 42.96679688 44.0728125 43.46484375 45.140625 C49.84988425 60.16133362 50.56059791 78.0743301 48 94 C47.67 94 47.34 94 47 94 C46.98598145 92.92238403 46.98598145 92.92238403 46.97167969 91.82299805 C46.5553651 66.23393641 44.53727556 39.97246702 25.625 20.5625 C25.08875 20.046875 24.5525 19.53125 24 19 C24 18.34 24 17.68 24 17 C23.401875 16.72542969 22.80375 16.45085938 22.1875 16.16796875 C20.0926337 15.04945978 18.70950024 13.9374156 17 12.3125 C12.89963884 8.66872928 8.26424291 6.15300726 3.4765625 3.515625 C1 2 1 2 0 0 Z " fill="#01B9F3" transform="translate(929,543)"/>
<path d="M0 0 C-0.56589844 0.19335938 -1.13179687 0.38671875 -1.71484375 0.5859375 C-2.81505859 0.97652344 -2.81505859 0.97652344 -3.9375 1.375 C-5.03384766 1.75785156 -5.03384766 1.75785156 -6.15234375 2.1484375 C-8.18682116 2.85271413 -8.18682116 2.85271413 -9 5 C-10.46651756 4.75601219 -10.46651756 4.75601219 -11.96266174 4.50709534 C-16.18647389 3.9073065 -20.33747215 3.86657499 -24.59741211 3.88647461 C-25.42748779 3.88632858 -26.25756348 3.88618256 -27.11279297 3.8860321 C-29.83433723 3.88672426 -32.55581156 3.8944838 -35.27734375 3.90234375 C-37.17305972 3.90421041 -39.06877617 3.90563314 -40.9644928 3.90663147 C-45.93748319 3.91043713 -50.91044407 3.92025065 -55.88342285 3.93133545 C-60.96459555 3.94159162 -66.04577305 3.94613808 -71.12695312 3.95117188 C-81.08464834 3.96187476 -91.04232171 3.97892762 -101 4 C-101 3.34 -101 2.68 -101 2 C-99.48688736 1.98786972 -99.48688736 1.98786972 -97.94320679 1.97549438 C-88.3819677 1.89761297 -78.82086361 1.80977227 -69.25980186 1.71247292 C-64.34575533 1.66277669 -59.43172757 1.61644696 -54.51757812 1.578125 C-49.76474341 1.54093191 -45.01207682 1.49448557 -40.25938797 1.44193649 C-38.45678314 1.42357147 -36.65414252 1.40839947 -34.85148239 1.39665604 C-25.31862858 1.33239987 -16.17220362 1.01535262 -6.76675415 -0.67471313 C-4.1277217 -0.98498378 -2.48731236 -0.85351567 0 0 Z " fill="#00B7F3" transform="translate(918,714)"/>
<path d="M0 0 C0 3.53105585 -0.50159211 3.88979005 -2.8125 6.375 C-4.72466698 8.49813376 -6.20642594 10.34404324 -7.6875 12.8125 C-9 15 -9 15 -12 17 C-12.433125 17.763125 -12.86625 18.52625 -13.3125 19.3125 C-14.99143241 21.98635532 -16.72314683 23.42205179 -19.18359375 25.33984375 C-22.51466314 28.38436953 -25.17229982 32.02993017 -27.94921875 35.57421875 C-30 38 -30 38 -33 40 C-31.50441651 34.97709696 -28.50108391 32.03156454 -24.9375 28.375 C-20.09641839 23.29386475 -15.53435721 18.10226791 -11.14453125 12.62109375 C-7.58740754 8.27349811 -3.79695559 4.13805325 0 0 Z " fill="#155DED" transform="translate(656,915)"/>
<path d="M0 0 C4.94413127 2.05425172 8.33567608 5.94355501 12.1484375 9.58984375 C14.8788376 12.09934469 14.8788376 12.09934469 18.1015625 13.50390625 C21 15 21 15 22.734375 17.2109375 C26.91083024 22.35229792 32.72255863 25.82167407 38.0859375 29.6484375 C38.97023438 30.29296875 39.85453125 30.9375 40.765625 31.6015625 C41.57805664 32.18244629 42.39048828 32.76333008 43.22753906 33.36181641 C43.81245117 33.90241699 44.39736328 34.44301758 45 35 C45 35.99 45 36.98 45 38 C33.0129205 29.01569592 21.19830999 19.95566349 10 10 C8.97537903 9.09882346 7.95064181 8.19777906 6.92578125 7.296875 C1.84907386 2.79368685 1.84907386 2.79368685 0 1 C0 0.67 0 0.34 0 0 Z " fill="#131637" transform="translate(230,1064)"/>
<path d="M0 0 C1.80535721 0.03330917 1.80535721 0.03330917 3.64718628 0.06729126 C4.64248856 0.08148354 4.64248856 0.08148354 5.65789795 0.09596252 C7.85496296 0.12968815 10.05146911 0.17778897 12.2482605 0.22598267 C13.76996391 0.25214492 15.29168295 0.27741232 16.81341553 0.30181885 C20.82164256 0.36851783 24.8295416 0.44739985 28.8374939 0.52877808 C32.92611079 0.60965159 37.0149203 0.67906062 41.10372925 0.74942017 C49.12870265 0.8892101 57.15336583 1.04186471 65.177948 1.20254517 C65.177948 1.53254517 65.177948 1.86254517 65.177948 2.20254517 C47.357948 2.53254517 29.537948 2.86254517 11.177948 3.20254517 C11.177948 3.53254517 11.177948 3.86254517 11.177948 4.20254517 C9.44849146 4.0601906 7.71939146 3.91350134 5.990448 3.76504517 C4.54605347 3.64322876 4.54605347 3.64322876 3.07247925 3.51895142 C0.39145198 3.22588366 -2.1883506 2.77550763 -4.822052 2.20254517 C-2.822052 0.20254517 -2.822052 0.20254517 0 0 Z " fill="#01325C" transform="translate(651.8220520019531,537.7974548339844)"/>
<path d="M0 0 C4.41080354 -0.02490464 8.82156871 -0.04295604 13.23242188 -0.05493164 C14.72982497 -0.05992943 16.22722327 -0.0667299 17.72460938 -0.07543945 C19.88933505 -0.08770623 22.05399565 -0.09327397 24.21875 -0.09765625 C26.1668457 -0.10551147 26.1668457 -0.10551147 28.15429688 -0.11352539 C31.51686643 -0.01426213 34.70019186 0.30696242 38.02307129 0.76072693 C41.19708765 1.14488678 44.36841026 1.2232453 47.5625 1.31640625 C48.57763672 1.3475779 48.57763672 1.3475779 49.61328125 1.37937927 C51.74210002 1.44394913 53.87102525 1.50332156 56 1.5625 C57.45704157 1.60577365 58.91407299 1.6493905 60.37109375 1.69335938 C63.91395412 1.79953302 67.45692963 1.90105111 71 2 C71 2.33 71 2.66 71 3 C47.24276105 3.21525237 23.67194892 3.30199219 0 1 C0 0.67 0 0.34 0 0 Z " fill="#3D435B" transform="translate(575,1217)"/>
<path d="M0 0 C1.55124236 4.70141513 -0.36958468 7.93465867 -2.33203125 12.23046875 C-2.68383957 13.0214949 -3.03564789 13.81252106 -3.39811707 14.6275177 C-4.14344434 16.29671244 -4.89442935 17.96339074 -5.65063477 19.62768555 C-6.81029532 22.18264265 -7.95037456 24.74566572 -9.08789062 27.31054688 C-9.81396319 28.93019947 -10.54113931 30.5493579 -11.26953125 32.16796875 C-11.6123262 32.9377153 -11.95512115 33.70746185 -12.30830383 34.50053406 C-14.76833522 39.88416761 -14.76833522 39.88416761 -17 41 C-16.36843005 35.94744036 -14.86540627 31.70406799 -13 27 C-12.34 27 -11.68 27 -11 27 C-11.07863281 26.32710937 -11.15726562 25.65421875 -11.23828125 24.9609375 C-10.91646732 20.96200374 -9.14322645 18.03638974 -7.1875 14.625 C-4.49541729 9.83474794 -2.08424309 5.08897208 0 0 Z " fill="#08EAE9" transform="translate(363,811)"/>
<path d="M0 0 C0 9.57 0 19.14 0 29 C-0.66 29 -1.32 29 -2 29 C-2.33 21.41 -2.66 13.82 -3 6 C-3.99 6.33 -4.98 6.66 -6 7 C-6.66 6.34 -7.32 5.68 -8 5 C-6.8562364 4.16382818 -5.70992861 3.33113541 -4.5625 2.5 C-3.92441406 2.0359375 -3.28632813 1.571875 -2.62890625 1.09375 C-1 0 -1 0 0 0 Z " fill="#00E8F1" transform="translate(297,725)"/>
<path d="M0 0 C1.35710478 4.07131435 0.16774405 5.45896386 -1.60546875 9.3203125 C-1.88594559 9.9384079 -2.16642242 10.5565033 -2.45539856 11.19332886 C-3.35701785 13.17484906 -4.27193035 15.14989261 -5.1875 17.125 C-5.78540706 18.43187944 -6.38242216 19.73916735 -6.97851562 21.046875 C-8.12628917 23.56227193 -9.27866536 26.07546893 -10.43505859 28.58691406 C-12.32533485 32.70954464 -14.17027463 36.85020103 -16 41 C-17.55646037 36.29078582 -15.61214276 33.06368636 -13.6328125 28.76953125 C-13.27863251 27.9785051 -12.92445251 27.18747894 -12.55953979 26.3724823 C-11.42545348 23.84747808 -10.27519434 21.33020097 -9.125 18.8125 C-8.3570628 17.10527172 -7.59012347 15.3975942 -6.82421875 13.68945312 C-1.19567626 1.19567626 -1.19567626 1.19567626 0 0 Z " fill="#001D2E" transform="translate(388,760)"/>
<path d="M0 0 C1.16257324 0.01047363 2.32514648 0.02094727 3.52294922 0.03173828 C5.40820312 0.04140625 5.40820312 0.04140625 7.33154297 0.05126953 C9.30960938 0.07640625 9.30960938 0.07640625 11.32763672 0.10205078 C12.66747393 0.11208096 14.00731823 0.12120674 15.34716797 0.12939453 C18.63250244 0.15303003 21.91748137 0.18597844 25.20263672 0.22705078 C25.20263672 0.55705078 25.20263672 0.88705078 25.20263672 1.22705078 C18.76763672 1.72205078 18.76763672 1.72205078 12.20263672 2.22705078 C12.20263672 3.21705078 12.20263672 4.20705078 12.20263672 5.22705078 C8.22886843 6.79098434 5.38885769 5.5885037 1.45263672 4.28955078 C-0.30306641 3.71914063 -0.30306641 3.71914063 -2.09423828 3.13720703 C-2.98626953 2.83685547 -3.87830078 2.53650391 -4.79736328 2.22705078 C-2.79736328 0.22705078 -2.79736328 0.22705078 0 0 Z " fill="#0B214D" transform="translate(672.79736328125,540.77294921875)"/>
<path d="M0 0 C11.56434628 3.52324836 25.68449946 13.28620445 32 24 C31.67 24.99 31.34 25.98 31 27 C29.82739389 25.71372289 28.6620717 24.42080217 27.5 23.125 C26.8503125 22.40570312 26.200625 21.68640625 25.53125 20.9453125 C24 19 24 19 24 17 C23.401875 16.72542969 22.80375 16.45085938 22.1875 16.16796875 C20.0926337 15.04945978 18.70950024 13.9374156 17 12.3125 C12.89963884 8.66872928 8.26424291 6.15300726 3.4765625 3.515625 C1 2 1 2 0 0 Z " fill="#03A9E3" transform="translate(929,543)"/>
<path d="M0 0 C0.66 0.33 1.32 0.66 2 1 C1.33613281 1.71285156 0.67226563 2.42570313 -0.01171875 3.16015625 C-5.82974207 9.4068336 -5.82974207 9.4068336 -11 16.1875 C-11.66 17.115625 -12.32 18.04375 -13 19 C-13.66 19 -14.32 19 -15 19 C-15.268125 19.556875 -15.53625 20.11375 -15.8125 20.6875 C-16.204375 21.450625 -16.59625 22.21375 -17 23 C-17.4125 23.825 -17.825 24.65 -18.25 25.5 C-20.39434726 28.56335322 -22.81781007 30.09068604 -26 32 C-24.36822879 28.16808783 -21.82416665 25.23862421 -19.125 22.125 C-18.64756348 21.56780273 -18.17012695 21.01060547 -17.67822266 20.43652344 C-16.65764921 19.24624037 -15.63529461 18.05748258 -14.61132812 16.87011719 C-12.94931442 14.94117401 -11.29419206 13.00649965 -9.640625 11.0703125 C-1.23872884 1.23872884 -1.23872884 1.23872884 0 0 Z " fill="#1558EE" transform="translate(601,979)"/>
<path d="M0 0 C0.66 0.33 1.32 0.66 2 1 C-7.38862429 11.16241201 -17.24897426 19.24382267 -30 25 C-32.375 24.6875 -32.375 24.6875 -34 24 C-33.01 24 -32.02 24 -31 24 C-31 23.34 -31 22.68 -31 22 C-30.10539063 21.5875 -29.21078125 21.175 -28.2890625 20.75 C-17.220032 15.51574775 -8.43148149 8.93402012 0 0 Z " fill="#03B0E7" transform="translate(953,688)"/>
<path d="M0 0 C1.20598098 3.61794293 0.74840986 4.16970976 -0.84375 7.5 C-1.26269531 8.38268555 -1.68164062 9.26537109 -2.11328125 10.17480469 C-2.57089844 11.10711914 -3.02851562 12.03943359 -3.5 13 C-4.18642578 14.41780762 -4.18642578 14.41780762 -4.88671875 15.86425781 C-13.72892442 33.86446221 -13.72892442 33.86446221 -18 36 C-16.47309555 31.81281874 -14.3843752 28.07299635 -12.125 24.25 C-9.42559182 19.61016523 -6.95767485 14.99861917 -4.875 10.04296875 C-3.40736623 6.61630597 -1.69074933 3.32111475 0 0 Z " fill="#01B3E8" transform="translate(1068,699)"/>
<path d="M0 0 C0.81726563 0.0515625 1.63453125 0.103125 2.4765625 0.15625 C3.745 0.25292969 3.745 0.25292969 5.0390625 0.3515625 C6.71344989 0.46490565 8.38792818 0.57691507 10.0625 0.6875 C10.85366211 0.74389648 11.64482422 0.80029297 12.45996094 0.85839844 C14.35083073 0.95976984 16.2476181 0.93741843 18.140625 0.890625 C20.6640625 0.9765625 20.6640625 0.9765625 22.6640625 2.9765625 C11.95754018 4.0176698 2.28391329 3.82282966 -8.3359375 1.9765625 C-5.36276312 0.25445556 -3.4176797 -0.24289217 0 0 Z " fill="#141A39" transform="translate(560.3359375,1213.0234375)"/>
<path d="M0 0 C2.14881394 3.22322091 2.35453556 4.59901704 2.66796875 8.3671875 C2.75626953 9.41777344 2.84457031 10.46835937 2.93554688 11.55078125 C3.06026367 13.19626953 3.06026367 13.19626953 3.1875 14.875 C3.28224609 15.96425781 3.37699219 17.05351563 3.47460938 18.17578125 C3.86435399 23.03717595 4.14945836 27.22298787 3 32 C2.67 32 2.34 32 2 32 C0.63673731 21.2643063 -0.31366039 10.83870913 0 0 Z " fill="#202442" transform="translate(34,661)"/>
<path d="M0 0 C0 3.84759538 -0.99356258 5.72281888 -3 9 C-4.97946592 10.36363208 -6.9819245 11.69418644 -9 13 C-11.13322488 15.22996978 -13.08444646 17.58178347 -15 20 C-15 16.47217938 -14.48648282 16.0452647 -12.2265625 13.49609375 C-11.6490625 12.83802734 -11.0715625 12.17996094 -10.4765625 11.50195312 C-9.86554687 10.82068359 -9.25453125 10.13941406 -8.625 9.4375 C-8.02171875 8.75236328 -7.4184375 8.06722656 -6.796875 7.36132812 C-4.57951847 4.85078779 -2.3689065 2.3689065 0 0 Z " fill="#0E53F0" transform="translate(573,1012)"/>
<path d="M0 0 C0.99 0.66 1.98 1.32 3 2 C-2.28 7.28 -7.56 12.56 -13 18 C-13.66 17.67 -14.32 17.34 -15 17 C-14.45730469 16.48050781 -13.91460938 15.96101563 -13.35546875 15.42578125 C-9.64477137 11.80868705 -6.53093884 8.5556899 -4 4 C-2.70420353 2.63015802 -1.38007251 1.2848951 0 0 Z " fill="#0180E9" transform="translate(642,456)"/>
<path d="M0 0 C3.66312152 1.32019693 6.5311358 2.9280608 9.64453125 5.2578125 C10.48564453 5.88300781 11.32675781 6.50820313 12.19335938 7.15234375 C13.05767578 7.80332031 13.92199219 8.45429687 14.8125 9.125 C15.69615234 9.78371094 16.57980469 10.44242188 17.49023438 11.12109375 C19.66387972 12.74251568 21.83359619 14.36892254 24 16 C23.01 16.33 22.02 16.66 21 17 C18.3984375 15.33984375 18.3984375 15.33984375 15.375 12.9375 C10.90641705 9.4330104 6.36994968 6.1930006 1.546875 3.19140625 C1.03640625 2.79824219 0.5259375 2.40507813 0 2 C0 1.34 0 0.68 0 0 Z " fill="#001427" transform="translate(261,835)"/>
<path d="M0 0 C-6.27 3.96 -12.54 7.92 -19 12 C-19.33 11.34 -19.66 10.68 -20 10 C-19.67 9.34 -19.34 8.68 -19 8 C-17.66666667 7.66666667 -16.33333333 7.33333333 -15 7 C-14.67 6.34 -14.34 5.68 -14 5 C-13.01 5 -12.02 5 -11 5 C-11 4.34 -11 3.68 -11 3 C-9.68 3 -8.36 3 -7 3 C-7 2.01 -7 1.02 -7 0 C-3.98968256 -0.93423645 -3.13349732 -1.04449911 0 0 Z " fill="#0D1130" transform="translate(941,1126)"/>
<path d="M0 0 C-0.59861742 2.35171131 -1.26924352 4.6859378 -2 7 C-2.99 7.495 -2.99 7.495 -4 8 C-3.67 6.35 -3.34 4.7 -3 3 C-9.93 2.67 -16.86 2.34 -24 2 C-24 1.67 -24 1.34 -24 1 C-15.97667603 0.09958689 -8.07029553 -0.11547323 0 0 Z " fill="#15F2EC" transform="translate(410,708)"/>
<path d="M0 0 C0.66 0.33 1.32 0.66 2 1 C0.99851833 9.08643179 -0.05338979 17.07451558 -2 25 C-2.66 25 -3.32 25 -4 25 C-3.24595285 16.55467195 -1.62171958 8.31258777 0 0 Z " fill="#131733" transform="translate(1202,737)"/>
<path d="M0 0 C0.99 0.33 1.98 0.66 3 1 C0.27686731 2.96683162 -2.45450425 4.92190246 -5.1875 6.875 C-5.95642578 7.43058594 -6.72535156 7.98617187 -7.51757812 8.55859375 C-11.22186479 11.19769927 -14.61504771 13.61157823 -19 15 C-15.25258398 11.05310176 -11.29225663 7.79612528 -6.875 4.625 C-6.25496094 4.16222656 -5.63492187 3.69945312 -4.99609375 3.22265625 C-3.38815291 2.06424726 -1.69787374 1.02206159 0 0 Z " fill="#00182C" transform="translate(272,771)"/>
<path d="M0 0 C1 3 1 3 0.33496094 4.85351562 C-0.02823242 5.53091797 -0.39142578 6.20832031 -0.765625 6.90625 C-1.16136719 7.65003906 -1.55710937 8.39382813 -1.96484375 9.16015625 C-2.38894531 9.93230469 -2.81304688 10.70445312 -3.25 11.5 C-3.65863281 12.27214844 -4.06726562 13.04429687 -4.48828125 13.83984375 C-6.3808882 17.35120776 -8.05010242 20.26884933 -11 23 C-10.42590968 19.42635641 -9.50054964 16.71615696 -7.71484375 13.57421875 C-7.26689453 12.77822266 -6.81894531 11.98222656 -6.35742188 11.16210938 C-5.88884766 10.34548828 -5.42027344 9.52886719 -4.9375 8.6875 C-4.46505859 7.85154297 -3.99261719 7.01558594 -3.50585938 6.15429688 C-2.34332244 4.09930735 -1.17457909 2.04812263 0 0 Z " fill="#011228" transform="translate(1066,708)"/>
<path d="M0 0 C0.66 0 1.32 0 2 0 C2.75 1.75 2.75 1.75 3 4 C1.25 6 1.25 6 -1 8 C-2.79174235 10.27413452 -4.3923265 12.58848975 -6 15 C-6.66 15 -7.32 15 -8 15 C-6.62992438 11.34426939 -4.98982135 8.04532353 -3 4.6875 C-2.484375 3.80449219 -1.96875 2.92148437 -1.4375 2.01171875 C-0.7259375 1.01591797 -0.7259375 1.01591797 0 0 Z " fill="#101933" transform="translate(120,309)"/>
<path d="M0 0 C4.20406624 4.06820772 7.87373624 8.40581298 11.51367188 12.97851562 C12.6333702 14.35463341 13.81237816 15.68205506 15 17 C15.66 17 16.32 17 17 17 C17.33 18.32 17.66 19.64 18 21 C17.01 21 16.02 21 15 21 C12.94921875 18.875 12.94921875 18.875 10.6875 16 C9.89859375 15.00097656 9.1096875 14.00195312 8.296875 12.97265625 C7.53890625 11.99167969 6.7809375 11.01070312 6 10 C5.36578125 9.19433594 4.7315625 8.38867188 4.078125 7.55859375 C0 2.28616071 0 2.28616071 0 0 Z " fill="#0E1230" transform="translate(159,988)"/>
<path d="M0 0 C0.33 0.99 0.66 1.98 1 3 C0.01 3.66 -0.98 4.32 -2 5 C-3.19232613 7.05003955 -3.19232613 7.05003955 -4 9 C-4.33 9 -4.66 9 -5 9 C-5.33 13.29 -5.66 17.58 -6 22 C-6.33 22 -6.66 22 -7 22 C-8.0735426 6.54439462 -8.0735426 6.54439462 -5.44140625 2.7578125 C-3.5 1.4375 -3.5 1.4375 0 0 Z " fill="#03B5CC" transform="translate(437,823)"/>
<path d="M0 0 C0.33 0 0.66 0 1 0 C1.08133791 1.91595968 1.13934367 3.83291932 1.1875 5.75 C1.22230469 6.81734375 1.25710937 7.8846875 1.29296875 8.984375 C0.96555074 12.35459767 0.24169063 13.53853578 -2 16 C-2.556875 16.7425 -3.11375 17.485 -3.6875 18.25 C-4.120625 18.8275 -4.55375 19.405 -5 20 C-4.35346673 13.04976736 -2.13972752 6.61822697 0 0 Z " fill="#252D4C" transform="translate(60,440)"/>
<path d="M0 0 C-0.56589844 0.19335938 -1.13179687 0.38671875 -1.71484375 0.5859375 C-2.81505859 0.97652344 -2.81505859 0.97652344 -3.9375 1.375 C-5.03384766 1.75785156 -5.03384766 1.75785156 -6.15234375 2.1484375 C-8.18682116 2.85271413 -8.18682116 2.85271413 -9 5 C-12.375 4.6875 -12.375 4.6875 -16 4 C-16.66 3.01 -17.32 2.02 -18 1 C-15.75152519 0.63627613 -13.50113812 0.28435904 -11.25 -0.0625 C-9.99703125 -0.25972656 -8.7440625 -0.45695313 -7.453125 -0.66015625 C-4.49983411 -0.95080818 -2.7397586 -0.98935727 0 0 Z " fill="#069EEF" transform="translate(918,714)"/>
<path d="M0 0 C0 0.33 0 0.66 0 1 C-8.64024562 3.513526 -17.08810018 3.18417244 -26 3 C-26 2.67 -26 2.34 -26 2 C-17.31163005 0.79268308 -8.79705092 -0.38064163 0 0 Z " fill="#292B43" transform="translate(680,1216)"/>
<path d="M0 0 C0 4.01744904 -1.40717217 4.86174733 -4.125 7.75 C-4.94097656 8.62914062 -5.75695312 9.50828125 -6.59765625 10.4140625 C-7.39042969 11.26742187 -8.18320312 12.12078125 -9 13 C-11.02389246 15.31418814 -13.01180431 17.65494867 -15 20 C-15 13.34661563 -6.98696268 6.87287266 -2.4375 2.3125 C-1.633125 1.549375 -0.82875 0.78625 0 0 Z " fill="#1856E4" transform="translate(639,935)"/>
<path d="M0 0 C2 3 2 3 1.375 6.3125 C-0.01085776 10.02911853 -1.56302603 12.8776271 -4 16 C-4.66 16 -5.32 16 -6 16 C-4.25192871 10.53262809 -2.34205919 5.24175152 0 0 Z " fill="#0BDCD8" transform="translate(338,811)"/>
<path d="M0 0 C5.19031078 1.6174933 9.06772586 4.85512037 13.3125 8.125 C14.05306641 8.68832031 14.79363281 9.25164063 15.55664062 9.83203125 C17.37501609 11.21634289 19.18924674 12.60574226 21 14 C16.9775489 14 14.78223459 12.05598539 11.625 9.8125 C11.06039063 9.42513672 10.49578125 9.03777344 9.9140625 8.63867188 C6.22468153 6.05525117 3.09934435 3.26766081 0 0 Z " fill="#001324" transform="translate(433,756)"/>
<path d="M0 0 C0.33 0.99 0.66 1.98 1 3 C0.401875 3.556875 -0.19625 4.11375 -0.8125 4.6875 C-3.0546036 6.88564321 -3.0546036 6.88564321 -4.4375 9.4375 C-6.25923393 12.42514365 -8.46626243 14.60322121 -11 17 C-11.99 16.67 -12.98 16.34 -14 16 C-13.15695312 15.09636719 -12.31390625 14.19273437 -11.4453125 13.26171875 C-10.33843161 12.07041474 -9.23166684 10.87900285 -8.125 9.6875 C-7.56941406 9.09259766 -7.01382813 8.49769531 -6.44140625 7.88476562 C-5.90644531 7.30791016 -5.37148438 6.73105469 -4.8203125 6.13671875 C-4.32805176 5.60780029 -3.83579102 5.07888184 -3.32861328 4.53393555 C-1.79418204 2.82718765 -1.79418204 2.82718765 0 0 Z " fill="#1B1F36" transform="translate(727,362)"/>
<path d="M0 0 C3.50297874 4.02193856 9 10.39433144 9 16 C8.01 15.67 7.02 15.34 6 15 C5.3125 12.9375 5.3125 12.9375 5 11 C4.34 11 3.68 11 3 11 C0.84694043 7.14243493 -0.39253254 4.44870215 0 0 Z " fill="#1F2542" transform="translate(1133,317)"/>
<path d="M0 0 C0.33 0.66 0.66 1.32 1 2 C0.0625 4.125 0.0625 4.125 -1 6 C-1.99 5.67 -2.98 5.34 -4 5 C-2.68 3.35 -1.36 1.7 0 0 Z M-5 7 C-5 10 -5 10 -6.5 11.6875 C-6.995 12.120625 -7.49 12.55375 -8 13 C-8.66 12.67 -9.32 12.34 -10 12 C-8.35 10.35 -6.7 8.7 -5 7 Z M-14 16 C-13.67 16.66 -13.34 17.32 -13 18 C-13.66 17.67 -14.32 17.34 -15 17 C-14.67 16.67 -14.34 16.34 -14 16 Z M-18 20 C-18 20.99 -18 21.98 -18 23 C-18.66 22.67 -19.32 22.34 -20 22 C-19.34 21.34 -18.68 20.68 -18 20 Z " fill="#0A1A39" transform="translate(225,179)"/>
<path d="M0 0 C0 0.66 0 1.32 0 2 C0.99 2.33 1.98 2.66 3 3 C-4.13393752 2.48462048 -11.01812817 1.55994099 -18 0 C-18 -0.33 -18 -0.66 -18 -1 C-12.19446358 -2.74166093 -5.67676081 -1.8922536 0 0 Z " fill="#2B3050" transform="translate(531,1209)"/>
<path d="M0 0 C0.8125 1.6875 0.8125 1.6875 1 4 C-1.3125 6.5 -1.3125 6.5 -4 9 C-4.33 9.7425 -4.66 10.485 -5 11.25 C-6 13 -6 13 -8.625 13.75 C-9.40875 13.8325 -10.1925 13.915 -11 14 C-7.46386286 9.21224044 -3.85516296 4.53548584 0 0 Z " fill="#1D233F" transform="translate(713,847)"/>
<path d="M0 0 C0.33 0 0.66 0 1 0 C1.33 8.58 1.66 17.16 2 26 C1.01 26.33 0.02 26.66 -1 27 C-1.1723784 17.95971078 -0.6331684 9.01134307 0 0 Z " fill="#02E5EF" transform="translate(431,829)"/>
<path d="M0 0 C0.66 0.33 1.32 0.66 2 1 C-1.31603574 3.68885795 -4.65017859 6.3533481 -8 9 C-9.04800781 9.83144531 -9.04800781 9.83144531 -10.1171875 10.6796875 C-11.9375 12.0625 -11.9375 12.0625 -15 14 C-15.99 13.67 -16.98 13.34 -18 13 C-12.06 8.71 -6.12 4.42 0 0 Z " fill="#011E2C" transform="translate(272,740)"/>
<path d="M0 0 C2.02440084 3.70664942 3.34611528 7.63524032 4.6875 11.625 C4.92533203 12.305625 5.16316406 12.98625 5.40820312 13.6875 C5.99849666 15.43933889 6.50565925 17.21870464 7 19 C6.67 19.66 6.34 20.32 6 21 C3.68540132 19.18182999 3.04622813 18.24384457 2.48828125 15.30078125 C2.43027344 14.31464844 2.37226562 13.32851563 2.3125 12.3125 C2.24675781 11.31863281 2.18101563 10.32476562 2.11328125 9.30078125 C2.07589844 8.54152344 2.03851562 7.78226562 2 7 C1.34 7 0.68 7 0 7 C0 4.69 0 2.38 0 0 Z " fill="#353751" transform="translate(1183,427)"/>
<path d="M0 0 C1.8718733 7.0799079 0.50472602 12.29091244 -2 19 C-2.66 19 -3.32 19 -4 19 C-3.37968409 12.42465139 -1.85102717 6.33307408 0 0 Z " fill="#2F334F" transform="translate(54,460)"/>
<path d="M0 0 C-5.17949008 5.17949008 -14.13237854 4.57147846 -21 5 C-14.85062801 0.90041867 -7.3133957 -0.48755971 0 0 Z " fill="#282D47" transform="translate(481,41)"/>
<path d="M0 0 C0.66 0 1.32 0 2 0 C2.125 2.875 2.125 2.875 2 6 C1.34 6.66 0.68 7.32 0 8 C-0.12375 8.66 -0.2475 9.32 -0.375 10 C-1 12 -1 12 -3.0625 13.25 C-3.701875 13.4975 -4.34125 13.745 -5 14 C-4.731875 13.360625 -4.46375 12.72125 -4.1875 12.0625 C-2.64635858 8.08797739 -1.32390688 4.05115505 0 0 Z " fill="#E0E2E9" transform="translate(1177,834)"/>
<path d="M0 0 C6.2131811 3.52538646 11.71981272 7.17895944 17 12 C12.9098394 12 10.59732004 9.95649173 7.375 7.6875 C6.776875 7.28337891 6.17875 6.87925781 5.5625 6.46289062 C1.12531066 3.37593198 1.12531066 3.37593198 0 0 Z " fill="#001929" transform="translate(480,757)"/>
<path d="M0 0 C7.29031024 -0.2494783 13.90673679 0.27669093 21 2 C21 2.33 21 2.66 21 3 C13.63740707 3.22424141 7.12950371 2.90120099 0 1 C0 0.67 0 0.34 0 0 Z " fill="#0D102E" transform="translate(403,653)"/>
<path d="M0 0 C0.33 0.66 0.66 1.32 1 2 C0.28735352 3.78759766 0.28735352 3.78759766 -0.87109375 5.9140625 C-1.28037109 6.67460937 -1.68964844 7.43515625 -2.11132812 8.21875 C-2.54896484 9.0128125 -2.98660156 9.806875 -3.4375 10.625 C-3.87126953 11.42679687 -4.30503906 12.22859375 -4.75195312 13.0546875 C-5.82756988 15.04044151 -6.91047213 17.0218546 -8 19 C-9 17 -9 17 -8.546875 14.94140625 C-8.15242188 13.76384766 -8.15242188 13.76384766 -7.75 12.5625 C-7.49734375 11.78003906 -7.2446875 10.99757813 -6.984375 10.19140625 C-5.94490009 7.87733711 -4.84412833 6.7044946 -3 5 C-1.96642853 3.35394174 -0.95939668 1.69036558 0 0 Z " fill="#0B112D" transform="translate(277,363)"/>
<path d="M0 0 C0.66 0.33 1.32 0.66 2 1 C0.63629701 3.99220268 -0.94908083 6.29026529 -3.125 8.75 C-3.93324219 9.67039062 -3.93324219 9.67039062 -4.7578125 10.609375 C-5.16773438 11.06828125 -5.57765625 11.5271875 -6 12 C-6.66 11.01 -7.32 10.02 -8 9 C-6.85459775 7.68712379 -5.70866567 6.37470979 -4.5625 5.0625 C-3.92441406 4.33160156 -3.28632812 3.60070312 -2.62890625 2.84765625 C-1.77458541 1.87860647 -0.91348825 0.91348825 0 0 Z " fill="#E6E7EB" transform="translate(768,312)"/>
<path d="M0 0 C0.33 0.99 0.66 1.98 1 3 C-0.56847344 5.51835268 -2.15634863 7.82918936 -3.9375 10.1875 C-4.41896484 10.84169922 -4.90042969 11.49589844 -5.39648438 12.16992188 C-6.58846384 13.78676531 -7.79306553 15.39428928 -9 17 C-9.66 16.67 -10.32 16.34 -11 16 C-10.37351563 15.09636719 -9.74703125 14.19273437 -9.1015625 13.26171875 C-8.27602781 12.0703221 -7.45050774 10.87891532 -6.625 9.6875 C-6.2125 9.09259766 -5.8 8.49769531 -5.375 7.88476562 C-3.56307623 5.26916598 -1.76504945 2.64757418 0 0 Z " fill="#171B31" transform="translate(151,262)"/>
<path d="M0 0 C0.99 0.33 1.98 0.66 3 1 C3 1.66 3 2.32 3 3 C3.66 3.33 4.32 3.66 5 4 C4.01 4 3.02 4 2 4 C2.020625 4.9075 2.04125 5.815 2.0625 6.75 C2.0110245 9.42672588 1.7784983 11.46988052 1 14 C0.34 14 -0.32 14 -1 14 C-0.67 9.38 -0.34 4.76 0 0 Z " fill="#003E6B" transform="translate(387,686)"/>
<path d="M0 0 C1.98 0.99 1.98 0.99 4 2 C4 2.66 4 3.32 4 4 C4.66 4 5.32 4 6 4 C7.40234375 5.42578125 7.40234375 5.42578125 8.9375 7.3125 C10.86463171 9.66350211 12.81719293 11.88235135 15 14 C12 14 12 14 9.08203125 11.4453125 C7.98435681 10.34630754 6.89478953 9.23915907 5.8125 8.125 C5.25369141 7.56941406 4.69488281 7.01382812 4.11914062 6.44140625 C0 2.26694139 0 2.26694139 0 0 Z " fill="#101534" transform="translate(199,1034)"/>
<path d="M0 0 C0.66 0.33 1.32 0.66 2 1 C0.41728767 2.27160666 -1.16619635 3.54225285 -2.75 4.8125 C-3.63171875 5.52019531 -4.5134375 6.22789062 -5.421875 6.95703125 C-6.69804687 7.96830078 -6.69804687 7.96830078 -8 9 C-8.72703125 9.58136719 -9.4540625 10.16273438 -10.203125 10.76171875 C-12 12 -12 12 -14 12 C-12.64185223 7.9255567 -9.8691574 6.57978049 -6.4375 4.3125 C-5.82197266 3.89677734 -5.20644531 3.48105469 -4.57226562 3.05273438 C-3.05293329 2.02806838 -1.52707343 1.01309322 0 0 Z " fill="#00172B" transform="translate(468,830)"/>
<path d="M0 0 C0.33 0 0.66 0 1 0 C4.62870159 13.6332574 4.62870159 13.6332574 3 20 C2.67 20 2.34 20 2 20 C1.47130166 17.04287371 0.9517326 14.0846444 0.4375 11.125 C0.28603516 10.28324219 0.13457031 9.44148437 -0.02148438 8.57421875 C-0.16005859 7.76855469 -0.29863281 6.96289062 -0.44140625 6.1328125 C-0.57232666 5.38918457 -0.70324707 4.64555664 -0.83813477 3.87939453 C-1 2 -1 2 0 0 Z " fill="#02B4E8" transform="translate(1079,568)"/>
<path d="M0 0 C3.90285767 1.58667578 6.33520982 4.13350481 9.25 7.125 C10.14203125 8.03507812 11.0340625 8.94515625 11.953125 9.8828125 C12.62859375 10.58148438 13.3040625 11.28015625 14 12 C13.34 12.66 12.68 13.32 12 14 C11.55269531 13.46890625 11.10539062 12.9378125 10.64453125 12.390625 C7.31072852 8.49526489 4.03743836 5.18101204 0 2 C0 1.34 0 0.68 0 0 Z " fill="#00ADE0" transform="translate(1030,488)"/>
<path d="M0 0 C4.16138263 -0.08159574 7.9472484 0.01751476 12 1 C12 1.66 12 2.32 12 3 C7.34462607 3.83796731 3.62921525 4.0161692 -1 3 C-0.67 2.01 -0.34 1.02 0 0 Z " fill="#012449" transform="translate(944,446)"/>
<path d="M0 0 C-0.33 0.99 -0.66 1.98 -1 3 C-8.26 3 -15.52 3 -23 3 C-23 2.67 -23 2.34 -23 2 C-7.25512528 -0.29612756 -7.25512528 -0.29612756 0 0 Z " fill="#3A435C" transform="translate(562,25)"/>
<path d="M0 0 C4.00989658 0.08049062 6.79149077 1.23739446 10.25 3.3125 C10.25 3.6425 10.25 3.9725 10.25 4.3125 C8.52054347 4.17014543 6.79144346 4.02345618 5.0625 3.875 C3.61810547 3.75318359 3.61810547 3.75318359 2.14453125 3.62890625 C-0.53649602 3.33583849 -3.1162986 2.88546246 -5.75 2.3125 C-3.75 0.3125 -3.75 0.3125 0 0 Z " fill="#315077" transform="translate(652.75,537.6875)"/>
<path d="M0 0 C0.66 0.33 1.32 0.66 2 1 C-1.84919283 5.33034194 -5.72289646 7.6560756 -11 10 C-9.54144353 6.31353859 -7.69770955 4.83856029 -4.375 2.75 C-3.55773437 2.22921875 -2.74046875 1.7084375 -1.8984375 1.171875 C-1.27195312 0.78515625 -0.64546875 0.3984375 0 0 Z " fill="#111830" transform="translate(287,129)"/>
<path d="M0 0 C0.33 0 0.66 0 1 0 C1.33 5.28 1.66 10.56 2 16 C1.01 16 0.02 16 -1 16 C-1.02685095 13.52076199 -1.04676547 11.0418116 -1.0625 8.5625 C-1.07506836 7.50192383 -1.07506836 7.50192383 -1.08789062 6.41992188 C-1.09653588 4.61306441 -1.05220011 2.80612397 -1 1 C-0.67 0.67 -0.34 0.34 0 0 Z " fill="#05C5EE" transform="translate(511,783)"/>
<path d="M0 0 C4.15151338 1.44202476 7.29978445 3.5010438 10.8125 6.125 C11.78832031 6.84945312 12.76414062 7.57390625 13.76953125 8.3203125 C14.50558594 8.87460937 15.24164063 9.42890625 16 10 C15.01 10.33 14.02 10.66 13 11 C10.81695444 9.63633604 8.88337067 8.27368348 6.875 6.6875 C6.32457031 6.27048828 5.77414062 5.85347656 5.20703125 5.42382812 C1.14903846 2.29807692 1.14903846 2.29807692 0 0 Z " fill="#00182D" transform="translate(457,741)"/>
<path d="M0 0 C0.99 0.33 1.98 0.66 3 1 C1.90353942 2.79639296 0.79754852 4.58697154 -0.3125 6.375 C-1.23482422 7.87160156 -1.23482422 7.87160156 -2.17578125 9.3984375 C-4 12 -4 12 -7 14 C-5.98339559 11.26298813 -4.91603244 8.86436009 -3.375 6.375 C-1.74948186 4.02467224 -1.74948186 4.02467224 -2 1 C-1.34 0.67 -0.68 0.34 0 0 Z " fill="#0D1331" transform="translate(1113,952)"/>
<path d="M0 0 C4.3573226 1.47130373 7.71934134 3.83080615 11.3125 6.625 C11.86228516 7.04523437 12.41207031 7.46546875 12.97851562 7.8984375 C14.32292168 8.92720039 15.66201413 9.9629009 17 11 C13.25112482 11 12.08064341 9.91035528 9.0625 7.75 C8.20785156 7.14671875 7.35320312 6.5434375 6.47265625 5.921875 C4.11625458 4.09035901 2.05734154 2.15758324 0 0 Z " fill="#001425" transform="translate(214,801)"/>
<path d="M0 0 C-2.85584773 1.90389849 -4.9311762 2.69462177 -8.1875 3.625 C-9.08855469 3.88539063 -9.98960937 4.14578125 -10.91796875 4.4140625 C-11.94857422 4.70410156 -11.94857422 4.70410156 -13 5 C-13 4.01 -13 3.02 -13 2 C-8.64585367 -1.80987804 -5.32286625 -0.99239879 0 0 Z " fill="#0A1235" transform="translate(389,273)"/>
<path d="M0 0 C-1.50229091 3.82401322 -3.8011591 5.5208983 -7 8 C-7.99 9.485 -7.99 9.485 -9 11 C-9.99 10.67 -10.98 10.34 -12 10 C-10.57282151 8.32448647 -9.13291518 6.65980691 -7.6875 5 C-6.88699219 4.071875 -6.08648438 3.14375 -5.26171875 2.1875 C-3 0 -3 0 0 0 Z " fill="#1C5BF2" transform="translate(527,1068)"/>
<path d="M0 0 C1.25348607 2.95106435 1.01044806 3.97406463 -0.21484375 7.015625 C-1.06755859 8.61664062 -1.06755859 8.61664062 -1.9375 10.25 C-2.50339844 11.32765625 -3.06929688 12.4053125 -3.65234375 13.515625 C-4.09707031 14.33546875 -4.54179687 15.1553125 -5 16 C-5.33 15.34 -5.66 14.68 -6 14 C-4.36840829 9.10522486 -2.40118582 4.57368727 0 0 Z " fill="#06EBEC" transform="translate(344,854)"/>
<path d="M0 0 C-5.22531563 3.48354375 -10.8131337 4.30934332 -17 4 C-11.35084394 0.23389596 -6.59922601 -0.22755952 0 0 Z " fill="#0D122C" transform="translate(507,35)"/>
<path d="M0 0 C0.66 0.33 1.32 0.66 2 1 C-0.625 5.875 -0.625 5.875 -4 7 C-4 7.99 -4 8.98 -4 10 C-5.32 9.67 -6.64 9.34 -8 9 C-5.36 6.03 -2.72 3.06 0 0 Z " fill="#1B223A" transform="translate(734,823)"/>
<path d="M0 0 C0 0.99 0 1.98 0 3 C-2.78823655 4.0326802 -3.8677274 4.04509293 -6.75 3.0625 C-7.4925 2.711875 -8.235 2.36125 -9 2 C-9 1.34 -9 0.68 -9 0 C-5.62182575 -0.84454356 -3.32534757 -1.10844919 0 0 Z " fill="#1B2448" transform="translate(685,543)"/>
<path d="M0 0 C0.66 0.33 1.32 0.66 2 1 C1.09373216 2.2989839 0.17450463 3.58893167 -0.75 4.875 C-1.51570313 5.95394531 -1.51570313 5.95394531 -2.296875 7.0546875 C-4.07503547 9.08570565 -5.52701607 9.97855012 -8 11 C-5.69281189 6.71522208 -3.67033927 3.27708863 0 0 Z " fill="#111734" transform="translate(384,407)"/>
<path d="M0 0 C10.55808656 5.0022779 10.55808656 5.0022779 15 9 C12.36 8.67 9.72 8.34 7 8 C7 7.01 7 6.02 7 5 C5.5459375 4.5978125 5.5459375 4.5978125 4.0625 4.1875 C3.051875 3.795625 2.04125 3.40375 1 3 C0.67 2.01 0.34 1.02 0 0 Z " fill="#191D3D" transform="translate(914,98)"/>
<path d="M0 0 C3.83663072 1.34929464 6.65172569 3.07751025 9.8125 5.625 C10.99779297 6.57246094 10.99779297 6.57246094 12.20703125 7.5390625 C12.79871094 8.02117188 13.39039063 8.50328125 14 9 C13.67 9.66 13.34 10.32 13 11 C11.01712504 9.54648985 9.03870613 8.08752713 7.0625 6.625 C6.49853516 6.2125 5.93457031 5.8 5.35351562 5.375 C1.11328125 2.2265625 1.11328125 2.2265625 0 0 Z " fill="#00192A" transform="translate(251,795)"/>
<path d="M0 0 C1.60031344 3.20062687 0.03173691 5.72271806 -1 9 C-1.33 8.01 -1.66 7.02 -2 6 C-2.99 6.33 -3.98 6.66 -5 7 C-5.66 6.34 -6.32 5.68 -7 5 C-4.69 3.35 -2.38 1.7 0 0 Z " fill="#01E0E9" transform="translate(296,725)"/>
<path d="M0 0 C0.97226335 2.59072612 1.11611108 3.69699083 0.109375 6.32421875 C-0.33921875 7.10410156 -0.7878125 7.88398438 -1.25 8.6875 C-1.68828125 9.47511719 -2.1265625 10.26273437 -2.578125 11.07421875 C-4 13 -4 13 -7 14 C-5.23570801 9.02790438 -2.6060834 4.56561939 0 0 Z " fill="#242945" transform="translate(111,324)"/>
<path d="M0 0 C-4.65285818 3.10190545 -9.41532676 4.33846504 -15 4 C-10.86492484 0.20951444 -5.37957111 -1.79319037 0 0 Z " fill="#101329" transform="translate(794,1194)"/>
<path d="M0 0 C0 3 0 3 -1.53125 4.60546875 C-2.1809375 5.12753906 -2.830625 5.64960937 -3.5 6.1875 C-4.1496875 6.71730469 -4.799375 7.24710938 -5.46875 7.79296875 C-5.9740625 8.19128906 -6.479375 8.58960938 -7 9 C-7.66 8.67 -8.32 8.34 -9 8 C-8.07038578 6.84775972 -7.1309875 5.70340824 -6.1875 4.5625 C-5.66542969 3.92441406 -5.14335938 3.28632812 -4.60546875 2.62890625 C-3 1 -3 1 0 0 Z " fill="#141C3A" transform="translate(725,836)"/>
<path d="M0 0 C0.66 0 1.32 0 2 0 C1.34580901 5.06998019 -0.8546409 9.41990777 -3 14 C-3.33 14 -3.66 14 -4 14 C-4.56561146 8.34388537 -2.71391278 4.77357872 0 0 Z " fill="#09E3E1" transform="translate(394,740)"/>
<path d="M0 0 C2.52893294 2.34160457 4.73354191 4.82152732 6.8125 7.5625 C7.47185547 8.43068359 7.47185547 8.43068359 8.14453125 9.31640625 C8.56798828 10.14978516 8.56798828 10.14978516 9 11 C8.67 11.99 8.34 12.98 8 14 C6.65804628 12.23569031 5.32668332 10.4633209 4 8.6875 C3.2575 7.70136719 2.515 6.71523438 1.75 5.69921875 C0 3 0 3 0 0 Z " fill="#141836" transform="translate(139,961)"/>
<path d="M0 0 C0 3.19610552 -0.54671542 4.41717626 -2 7.1875 C-2.37125 7.90292969 -2.7425 8.61835937 -3.125 9.35546875 C-3.558125 10.16951172 -3.558125 10.16951172 -4 11 C-4.66 10.34 -5.32 9.68 -6 9 C-5.34 7.02 -4.68 5.04 -4 3 C-3.34 3 -2.68 3 -2 3 C-2 2.34 -2 1.68 -2 1 C-1.34 0.67 -0.68 0.34 0 0 Z " fill="#1A2240" transform="translate(1163,867)"/>
<path d="M0 0 C0.66 0 1.32 0 2 0 C1.67 5.28 1.34 10.56 1 16 C0.67 16 0.34 16 0 16 C-0.71033431 10.47032059 -1.30267176 5.50016964 0 0 Z " fill="#282D47" transform="translate(1209,693)"/>
<path d="M0 0 C0.66 0.99 1.32 1.98 2 3 C1.40844669 4.31823302 0.80128537 5.62947051 0.1875 6.9375 C-0.14894531 7.66839844 -0.48539062 8.39929688 -0.83203125 9.15234375 C-2 11 -2 11 -5 12 C-3.68938409 7.76570244 -2.05643741 3.92592596 0 0 Z " fill="#303550" transform="translate(94,356)"/>
<path d="M0 0 C0.66 0.33 1.32 0.66 2 1 C1.21625 1.598125 0.4325 2.19625 -0.375 2.8125 C-3.14574323 4.91085249 -3.14574323 4.91085249 -5 8 C-7.5 9.75 -7.5 9.75 -10 11 C-10.66 10.67 -11.32 10.34 -12 10 C-8.04 6.7 -4.08 3.4 0 0 Z " fill="#DEDFEB" transform="translate(335,300)"/>
<path d="M0 0 C0.66 0.33 1.32 0.66 2 1 C2 1.66 2 2.32 2 3 C1.01 3.495 1.01 3.495 0 4 C-0.474375 4.804375 -0.94875 5.60875 -1.4375 6.4375 C-3 9 -3 9 -6 11 C-4.74194623 6.49197399 -3.09592835 3.5087188 0 0 Z " fill="#1565F5" transform="translate(556,1031)"/>
<path d="M0 0 C0.598125 0.78375 1.19625 1.5675 1.8125 2.375 C3.91085249 5.14574323 3.91085249 5.14574323 7 7 C6.67 8.65 6.34 10.3 6 12 C0 4.8 0 4.8 0 0 Z " fill="#141935" transform="translate(113,920)"/>
<path d="M0 0 C5.08938811 1.59043379 8.87456643 4.7446951 13 8 C12.01 8.33 11.02 8.66 10 9 C7.51953125 7.3828125 7.51953125 7.3828125 4.8125 5.125 C3.91144531 4.38507812 3.01039063 3.64515625 2.08203125 2.8828125 C1.39496094 2.26148438 0.70789063 1.64015625 0 1 C0 0.67 0 0.34 0 0 Z " fill="#001629" transform="translate(232,814)"/>
<path d="M0 0 C1.2380014 3.57644848 0.74926071 6.33694766 0 10 C-1.32 10.33 -2.64 10.66 -4 11 C-3.52269162 9.5410574 -3.04308958 8.08286504 -2.5625 6.625 C-2.29566406 5.81289063 -2.02882813 5.00078125 -1.75390625 4.1640625 C-1 2 -1 2 0 0 Z " fill="#09D7D6" transform="translate(346,793)"/>
<path d="M0 0 C0.66 0.33 1.32 0.66 2 1 C0.58994275 2.15395711 -0.82833458 3.29787466 -2.25 4.4375 C-3.43335938 5.39462891 -3.43335938 5.39462891 -4.640625 6.37109375 C-6.86247492 7.90505305 -8.36743482 8.57130246 -11 9 C-7.56638098 5.36440339 -4.2026393 2.63886654 0 0 Z " fill="#00132E" transform="translate(1007,781)"/>
<path d="M0 0 C0.66 0.66 1.32 1.32 2 2 C-0.31881505 4.67901932 -2.31814468 5.66204403 -5.6875 6.6875 C-6.89986328 7.06455078 -6.89986328 7.06455078 -8.13671875 7.44921875 C-9.05904297 7.72185547 -9.05904297 7.72185547 -10 8 C-6.97727468 4.74475735 -3.74281699 2.38179263 0 0 Z " fill="#05D9E4" transform="translate(282,735)"/>
<path d="M0 0 C0.99 0.33 1.98 0.66 3 1 C2.34 1 1.68 1 1 1 C0.67 1.99 0.34 2.98 0 4 C-1.65438613 4.69658363 -3.32254318 5.36096883 -5 6 C-6.77277259 7.52007842 -6.77277259 7.52007842 -8 9 C-8.66 8.67 -9.32 8.34 -10 8 C-8.71064081 6.85157077 -7.41843421 5.70633773 -6.125 4.5625 C-5.04605469 3.60537109 -5.04605469 3.60537109 -3.9453125 2.62890625 C-2 1 -2 1 0 0 Z " fill="#0E132B" transform="translate(399,394)"/>
<path d="M0 0 C1.35304209 4.05912626 0.15216503 5.77149591 -1.4375 9.6875 C-2.14712891 11.45673828 -2.14712891 11.45673828 -2.87109375 13.26171875 C-3.24363281 14.16535156 -3.61617188 15.06898438 -4 16 C-5.13672994 12.58981018 -4.85110129 11.83271596 -3.6875 8.5625 C-3.42324219 7.80066406 -3.15898437 7.03882813 -2.88671875 6.25390625 C-2.03746154 4.09522161 -1.07231605 2.05566265 0 0 Z " fill="#080C29" transform="translate(264,390)"/>
<path d="M0 0 C1 3 1 3 -0.109375 5.26171875 C-0.65078125 6.06222656 -1.1921875 6.86273437 -1.75 7.6875 C-2.28109375 8.49574219 -2.8121875 9.30398438 -3.359375 10.13671875 C-3.90078125 10.75160156 -4.4421875 11.36648438 -5 12 C-5.99 12 -6.98 12 -8 12 C-5.36 8.04 -2.72 4.08 0 0 Z " fill="#D1D4DF" transform="translate(1129,932)"/>
<path d="M0 0 C0.66 0.33 1.32 0.66 2 1 C-0.64 4.3 -3.28 7.6 -6 11 C-6.33 10.01 -6.66 9.02 -7 8 C-5.56640625 5.95703125 -5.56640625 5.95703125 -3.5625 3.8125 C-2.90378906 3.09707031 -2.24507812 2.38164063 -1.56640625 1.64453125 C-1.04949219 1.10183594 -0.53257812 0.55914063 0 0 Z " fill="#181B30" transform="translate(670,898)"/>
<path d="M0 0 C0.33 0 0.66 0 1 0 C1.125 6.75 1.125 6.75 0 9 C-0.66 9 -1.32 9 -2 9 C-2 9.66 -2 10.32 -2 11 C-2.66 11 -3.32 11 -4 11 C-3.52269162 9.5410574 -3.04308958 8.08286504 -2.5625 6.625 C-2.29566406 5.81289063 -2.02882813 5.00078125 -1.75390625 4.1640625 C-1 2 -1 2 0 0 Z " fill="#CFD2DD" transform="translate(1171,849)"/>
<path d="M0 0 C3.05936637 3.75467691 5 7.08113061 5 12 C4.34 12 3.68 12 3 12 C2.30314502 10.3789897 1.61777139 8.75303934 0.9375 7.125 C0.55464844 6.22007812 0.17179687 5.31515625 -0.22265625 4.3828125 C-1 2 -1 2 0 0 Z " fill="#282C4B" transform="translate(1163,376)"/>
<path d="M0 0 C1.32 0 2.64 0 4 0 C4 1.65 4 3.3 4 5 C1.69 4.67 -0.62 4.34 -3 4 C-1.75 2 -1.75 2 0 0 Z " fill="#031235" transform="translate(685,542)"/>
<path d="M0 0 C0.33 0.99 0.66 1.98 1 3 C-0.67045176 5.67272281 -2.72381819 7.8322078 -5 10 C-5.66 9.34 -6.32 8.68 -7 8 C-4.69 5.36 -2.38 2.72 0 0 Z " fill="#1F2643" transform="translate(741,346)"/>
<path d="M0 0 C4.66666667 0.66666667 9.33333333 1.33333333 14 2 C14 2.33 14 2.66 14 3 C9.71 3 5.42 3 1 3 C0.67 2.01 0.34 1.02 0 0 Z " fill="#2C304C" transform="translate(710,27)"/>
<path d="M0 0 C0.33 1.32 0.66 2.64 1 4 C-0.9375 6.25 -0.9375 6.25 -3 8 C-3.99 7.67 -4.98 7.34 -6 7 C-4.02 4.69 -2.04 2.38 0 0 Z " fill="#151D3A" transform="translate(686,879)"/>
<path d="M0 0 C0.66 0 1.32 0 2 0 C3.7578125 5.95703125 3.7578125 5.95703125 4 8 C3.01 9.485 3.01 9.485 2 11 C0.80712589 7.12315913 0 4.08378077 0 0 Z " fill="#212744" transform="translate(55,785)"/>
<path d="M0 0 C1 3 1 3 0.00390625 5.48046875 C-0.47175781 6.37378906 -0.94742187 7.26710938 -1.4375 8.1875 C-1.91058594 9.08855469 -2.38367187 9.98960937 -2.87109375 10.91796875 C-3.24363281 11.60503906 -3.61617187 12.29210937 -4 13 C-5.0169313 10.34501768 -5.13022151 9.30844625 -4.00390625 6.640625 C-3.52824219 5.85171875 -3.05257813 5.0628125 -2.5625 4.25 C-2.08941406 3.45078125 -1.61632813 2.6515625 -1.12890625 1.828125 C-0.75636719 1.22484375 -0.38382813 0.6215625 0 0 Z " fill="#01C0EF" transform="translate(1068,699)"/>
<path d="M0 0 C3 3 3 3 3.07421875 5.48046875 C2.94660156 6.37378906 2.81898437 7.26710938 2.6875 8.1875 C2.56761719 9.08855469 2.44773438 9.98960937 2.32421875 10.91796875 C2.21722656 11.60503906 2.11023437 12.29210937 2 13 C1.67 13 1.34 13 1 13 C0.67 8.71 0.34 4.42 0 0 Z " fill="#1B203B" transform="translate(37,695)"/>
<path d="M0 0 C0.33 0 0.66 0 1 0 C2.10228696 4.40914783 2.07654536 8.48382401 2 13 C1.01 12.67 0.02 12.34 -1 12 C-1.08159574 7.83861737 -0.98248524 4.0527516 0 0 Z " fill="#2F3757" transform="translate(1211,558)"/>
<path d="M0 0 C0 3 0 3 -1.4375 4.5 C-1.953125 4.995 -2.46875 5.49 -3 6 C-3.33 6.99 -3.66 7.98 -4 9 C-5.65 9.33 -7.3 9.66 -9 10 C-8.06409496 8.8944811 -7.12620142 7.79064547 -6.1875 6.6875 C-5.66542969 6.07261719 -5.14335938 5.45773437 -4.60546875 4.82421875 C-3.12827531 3.14575321 -1.59960869 1.56117966 0 0 Z " fill="#038AD6" transform="translate(585,513)"/>
<path d="M0 0 C2.39073445 3.82517513 2.55966552 7.59665524 3 12 C2.34 12 1.68 12 1 12 C-1.27678571 3.96428571 -1.27678571 3.96428571 0 0 Z " fill="#303355" transform="translate(1195,467)"/>
<path d="M0 0 C0.66 0 1.32 0 2 0 C0.99806563 3.79303725 0.18975773 6.71536341 -2 10 C-2.66 10 -3.32 10 -4 10 C-2.8905928 6.51329166 -1.73662334 3.22515763 0 0 Z " fill="#11172F" transform="translate(373,422)"/>
<path d="M0 0 C0.33 0 0.66 0 1 0 C0.6875 3.375 0.6875 3.375 0 7 C-0.99 7.66 -1.98 8.32 -3 9 C-3.66 8.34 -4.32 7.68 -5 7 C-4.19152271 5.83054208 -3.37810888 4.66449539 -2.5625 3.5 C-2.11003906 2.8503125 -1.65757812 2.200625 -1.19140625 1.53125 C-0.79824219 1.0259375 -0.40507812 0.520625 0 0 Z " fill="#18203E" transform="translate(137,282)"/>
<path d="M0 0 C2.64 0.33 5.28 0.66 8 1 C8 1.66 8 2.32 8 3 C8.99 3.33 9.98 3.66 11 4 C3.57142857 3 3.57142857 3 0 2 C0 1.34 0 0.68 0 0 Z " fill="#282C47" transform="translate(480,1199)"/>
<path d="M0 0 C4.67105792 1.55701931 8.08705685 4.08447373 12 7 C11.01 7.33 10.02 7.66 9 8 C6.73828125 6.6015625 6.73828125 6.6015625 4.3125 4.625 C3.50425781 3.97789063 2.69601562 3.33078125 1.86328125 2.6640625 C1.24839844 2.11492187 0.63351562 1.56578125 0 1 C0 0.67 0 0.34 0 0 Z " fill="#111434" transform="translate(277,1102)"/>
<path d="M0 0 C0 3 0 3 -1.2421875 4.60546875 C-1.78101563 5.12753906 -2.31984375 5.64960937 -2.875 6.1875 C-3.40867187 6.71730469 -3.94234375 7.24710938 -4.4921875 7.79296875 C-6 9 -6 9 -8 9 C-8 8.34 -8 7.68 -8 7 C-7.34 7 -6.68 7 -6 7 C-6 6.01 -6 5.02 -6 4 C-3.5625 2.375 -3.5625 2.375 -1 1 C-0.67 0.67 -0.34 0.34 0 0 Z " fill="#080D29" transform="translate(1024,1058)"/>
<path d="M0 0 C0.99 0.33 1.98 0.66 3 1 C2.67 1.99 2.34 2.98 2 4 C2.66 4 3.32 4 4 4 C4.66 5.98 5.32 7.96 6 10 C5.34 10.66 4.68 11.32 4 12 C3.3291288 10.3767313 2.66342971 8.75132422 2 7.125 C1.62875 6.22007812 1.2575 5.31515625 0.875 4.3828125 C0 2 0 2 0 0 Z " fill="#292E48" transform="translate(69,830)"/>
<path d="M0 0 C2 4 2 4 1.125 6.75 C0.75375 7.4925 0.3825 8.235 0 9 C-0.99 9 -1.98 9 -3 9 C-2.01 6.03 -1.02 3.06 0 0 Z " fill="#0BDAD7" transform="translate(352,779)"/>
<path d="M0 0 C0.33 0 0.66 0 1 0 C1.36923077 7.50769231 1.36923077 7.50769231 -0.5 10 C-0.995 10.33 -1.49 10.66 -2 11 C-3 9 -3 9 -2.44140625 6.8359375 C-2.15136719 6.02382813 -1.86132812 5.21171875 -1.5625 4.375 C-1.27503906 3.55773437 -0.98757812 2.74046875 -0.69140625 1.8984375 C-0.46324219 1.27195312 -0.23507813 0.64546875 0 0 Z " fill="#2B3250" transform="translate(64,428)"/>
<path d="M0 0 C0 0.66 0 1.32 0 2 C-1.53125 3.2890625 -1.53125 3.2890625 -3.5 4.625 C-4.1496875 5.07101562 -4.799375 5.51703125 -5.46875 5.9765625 C-5.9740625 6.31429688 -6.479375 6.65203125 -7 7 C-7.33 6.01 -7.66 5.02 -8 4 C-7.34 4 -6.68 4 -6 4 C-6 3.34 -6 2.68 -6 2 C-2.25 0 -2.25 0 0 0 Z " fill="#121738" transform="translate(1007,1075)"/>
<path d="M0 0 C2 2 2 2 2.125 4.625 C2.08375 5.40875 2.0425 6.1925 2 7 C0.35 6.01 -1.3 5.02 -3 4 C-2.67 3.01 -2.34 2.02 -2 1 C-1.34 0.67 -0.68 0.34 0 0 Z " fill="#002642" transform="translate(248,788)"/>
<path d="M0 0 C3.99500618 1.3697164 6.80009492 3.25722422 10 6 C8.35 6 6.7 6 5 6 C4.731875 5.360625 4.46375 4.72125 4.1875 4.0625 C3.11332248 1.66868314 3.11332248 1.66868314 0 1 C0 0.67 0 0.34 0 0 Z " fill="#01CCE4" transform="translate(484,763)"/>
<path d="M0 0 C2.46800047 1.15173355 4.04783565 2.04783565 6 4 C5.38125 4.103125 4.7625 4.20625 4.125 4.3125 C1.63473516 4.87525373 1.63473516 4.87525373 0 8 C0 5.36 0 2.72 0 0 Z " fill="#00D4E9" transform="translate(434,726)"/>
<path d="M0 0 C0.66 0 1.32 0 2 0 C2.125 3.375 2.125 3.375 2 7 C1.34 7.66 0.68 8.32 0 9 C-0.84454356 5.62182575 -1.10844919 3.32534757 0 0 Z " fill="#282D4D" transform="translate(43,507)"/>
<path d="M0 0 C0.99 0.66 1.98 1.32 3 2 C0.36 3.98 -2.28 5.96 -5 8 C-5.66 7.67 -6.32 7.34 -7 7 C-4.69 4.69 -2.38 2.38 0 0 Z " fill="#0389DA" transform="translate(593,505)"/>
<path d="M0 0 C0.33 0 0.66 0 1 0 C1.125 6.625 1.125 6.625 0 10 C-0.99 10.33 -1.98 10.66 -3 11 C-2.01 7.37 -1.02 3.74 0 0 Z " fill="#393F5C" transform="translate(60,440)"/>
<path d="M0 0 C0.99 0.66 1.98 1.32 3 2 C1.35 3.32 -0.3 4.64 -2 6 C-2.66 5.34 -3.32 4.68 -4 4 C-2.68 2.68 -1.36 1.36 0 0 Z " fill="#202A4B" transform="translate(388,402)"/>
<path d="M0 0 C0.66 0 1.32 0 2 0 C1.43628586 3.26954202 0.50037734 4.82575883 -2 7 C-2.99 6.67 -3.98 6.34 -5 6 C-3.38405168 3.95880212 -1.7143618 1.95927063 0 0 Z " fill="#19203E" transform="translate(172,235)"/>
<path d="M0 0 C-0.33 0.99 -0.66 1.98 -1 3 C-1.94875 2.979375 -2.8975 2.95875 -3.875 2.9375 C-6.90666283 2.77448174 -6.90666283 2.77448174 -9 4 C-9.66 3.34 -10.32 2.68 -11 2 C-3.375 0 -3.375 0 0 0 Z " fill="#CFD2DE" transform="translate(777,1200)"/>
<path d="M0 0 C3.29148243 1.13499394 3.9959869 1.99283376 5.75 5.125 C6.1625 6.07375 6.575 7.0225 7 8 C6.01 8 5.02 8 4 8 C0 2.74285714 0 2.74285714 0 0 Z " fill="#111633" transform="translate(152,979)"/>
<path d="M0 0 C0.66 0.33 1.32 0.66 2 1 C-0.64 2.98 -3.28 4.96 -6 7 C-6.66 6.67 -7.32 6.34 -8 6 C-5.36 4.02 -2.72 2.04 0 0 Z " fill="#001227" transform="translate(444,847)"/>
<path d="M0 0 C0 0.66 0 1.32 0 2 C-1.75 3.2890625 -1.75 3.2890625 -4 4.625 C-4.7425 5.07101562 -5.485 5.51703125 -6.25 5.9765625 C-6.8275 6.31429687 -7.405 6.65203125 -8 7 C-8 6.01 -8 5.02 -8 4 C-2.74285714 0 -2.74285714 0 0 0 Z " fill="#011F2F" transform="translate(223,776)"/>
<path d="M0 0 C5.01113235 1.4317521 6.94469549 3.98445693 10 8 C6.05205855 6.32971708 3.18203882 3.8204435 0 1 C0 0.67 0 0.34 0 0 Z " fill="#000E1C" transform="translate(941,552)"/>
<path d="M0 0 C1.9451 2.91765 2.45276317 4.62537285 3 8 C1.68 7.34 0.36 6.68 -1 6 C-0.67 4.02 -0.34 2.04 0 0 Z " fill="#20284D" transform="translate(263,539)"/>
<path d="M0 0 C3.79303725 1.00193437 6.71536341 1.81024227 10 4 C9.01 4.66 8.02 5.32 7 6 C6.34 4.68 5.68 3.36 5 2 C3.68 2.33 2.36 2.66 1 3 C0.67 2.01 0.34 1.02 0 0 Z " fill="#293052" transform="translate(793,46)"/>
<path d="M0 0 C2 1 2 1 4 5 C-0.455 4.01 -0.455 4.01 -5 3 C-3.68 2.34 -2.36 1.68 -1 1 C-0.67 0.67 -0.34 0.34 0 0 Z " fill="#333A58" transform="translate(470,1194)"/>
<path d="M0 0 C0.66 0.33 1.32 0.66 2 1 C-2.30769231 4.93846154 -2.30769231 4.93846154 -5.8125 5.25 C-6.534375 5.1675 -7.25625 5.085 -8 5 C-5.45378681 2.99940392 -3.01962385 1.20784954 0 0 Z " fill="#CCCEDA" transform="translate(875,1162)"/>
<path d="M0 0 C3.78786597 0.5260925 6.17152224 1.38103911 9 4 C9 4.66 9 5.32 9 6 C5.56404834 4.47291037 2.88087546 2.40072955 0 0 Z " fill="#05D6E4" transform="translate(264,836)"/>
<path d="M0 0 C0.66 0.33 1.32 0.66 2 1 C-0.64 2.98 -3.28 4.96 -6 7 C-6 6.01 -6 5.02 -6 4 C-3 1.8125 -3 1.8125 0 0 Z " fill="#001528" transform="translate(478,823)"/>
<path d="M0 0 C-8.57142857 0.28571429 -8.57142857 0.28571429 -12 -2 C-7.25042248 -3.52664992 -4.27829671 -2.29194467 0 0 Z " fill="#4C5067" transform="translate(434,539)"/>
<path d="M0 0 C0.66 0.66 1.32 1.32 2 2 C1.01 2.33 0.02 2.66 -1 3 C-0.67 2.01 -0.34 1.02 0 0 Z M-3 1 C-2.34 1.99 -1.68 2.98 -1 4 C-1.99 4.66 -2.98 5.32 -4 6 C-4.66 5.34 -5.32 4.68 -6 4 C-5.01 3.01 -4.02 2.02 -3 1 Z " fill="#1C2845" transform="translate(760,327)"/>
<path d="M0 0 C0.6875 1.6875 0.6875 1.6875 1 4 C-0.3125 6.75 -0.3125 6.75 -2 9 C-2.66 9 -3.32 9 -4 9 C-2.80100302 5.9168649 -1.52299523 2.93720508 0 0 Z " fill="#21253D" transform="translate(116,315)"/>
<path d="M0 0 C0.33 0.99 0.66 1.98 1 3 C-0.9375 6.1875 -0.9375 6.1875 -3 9 C-3.99 8.67 -4.98 8.34 -6 8 C-4.02 5.36 -2.04 2.72 0 0 Z " fill="#23273B" transform="translate(151,262)"/>
<path d="M0 0 C-2.31 1.32 -4.62 2.64 -7 4 C-7 2.68 -7 1.36 -7 0 C-3.98968256 -0.93423645 -3.13349732 -1.04449911 0 0 Z " fill="#131738" transform="translate(941,1126)"/>
<path d="M0 0 C0.33 0.99 0.66 1.98 1 3 C-0.9375 5.6875 -0.9375 5.6875 -3 8 C-3.99 7.67 -4.98 7.34 -6 7 C-4.02 4.69 -2.04 2.38 0 0 Z " fill="#242840" transform="translate(679,887)"/>
<path d="M0 0 C0.66 0.33 1.32 0.66 2 1 C1.34 3.64 0.68 6.28 0 9 C-0.66 8.67 -1.32 8.34 -2 8 C-1.34 5.36 -0.68 2.72 0 0 Z " fill="#141935" transform="translate(1185,805)"/>
<path d="M0 0 C0.66 0.33 1.32 0.66 2 1 C-3.625 5 -3.625 5 -7 5 C-4.63707344 2.47411298 -3.33537489 1.11179163 0 0 Z " fill="#02E3EF" transform="translate(274,742)"/>
<path d="M0 0 C4.24822374 0.47202486 6.19989709 2.96655518 9 6 C4.58763974 6 3.21615077 3.9302707 0 1 C0 0.67 0 0.34 0 0 Z " fill="#24274A" transform="translate(733,573)"/>
<path d="M0 0 C0 4.38968456 -2.12805101 5.76905739 -5 9 C-5.33 8.01 -5.66 7.02 -6 6 C-4.02 4.02 -2.04 2.04 0 0 Z " fill="#0E122D" transform="translate(804,275)"/>
<path d="M0 0 C-1.5625 1.5625 -1.5625 1.5625 -4 3 C-7.75 2.6875 -7.75 2.6875 -11 2 C-7.36576791 -0.32590854 -4.22911669 -0.16265833 0 0 Z " fill="#BABDCD" transform="translate(421,267)"/>
<path d="M0 0 C-0.33 0.99 -0.66 1.98 -1 3 C-3.5625 4.1875 -3.5625 4.1875 -6 5 C-6.33 4.01 -6.66 3.02 -7 2 C-2.25 0 -2.25 0 0 0 Z " fill="#F5F6F7" transform="translate(358,84)"/>
</svg>
